<svg width="0" height="0" style="position:absolute"><symbol viewBox="0 0 48.1 48" enable-background="new 0 0 48.1 48" id="PL-Hamburger"><g><path fill-rule="evenodd" clip-rule="evenodd" fill="#fff" d="M0 0h48.1v48H0z"/><g fill-rule="evenodd" clip-rule="evenodd" fill="#AFBEBF"><path d="M12.1 12h24v3.5h-24zM12.1 22.2h24v3.5h-24zM12.1 32.5h24V36h-24z"/></g></g></symbol><symbol viewBox="0 0 24 36" enable-background="new 0 0 24 36" id="blog"><path fill="#F5D23E" d="M24 20.1v-2.7c0-1-.8-1.7-1.7-1.7h-9.6v-4.5h.7c.8 0 1.8-.2 2.7-.8 1.2-.9 1.7-2.4 1.6-4.6v-.2s0-.1-.1-.1c0 0 0-.1-.1-.1l-.1-.1h-.1c-.1 0-.1 0-.2-.1H17c-2.1-.3-3.7.1-4.7 1.2-.8.9-1.1 1.9-1.1 2.8-.6-.5-1.4-1-2.4-1.1-1.3-.2-2.8.6-4.1 2.2v.1s0 .1-.1.1v.4s0 .1.1.1v.1c1.3 1.5 2.6 2.3 4 2.3H9c1-.1 1.8-.5 2.4-1.1v3.2H1.7c-1 0-1.7.8-1.7 1.7v2.7c0 1 .8 1.7 1.7 1.7h.5v.5l1.4 12.1c.1 1.1 1 1.8 1.9 1.8h12.9c.9 0 1.7-.7 1.9-1.7l1.4-12.1v-.5h.7c.8.1 1.6-.7 1.6-1.6zM13.4 7.2c.6-.6 1.6-.9 3-.8 0 1.4-.4 2.3-1.1 2.9-.8.7-2 .6-2.6.5-.1-.7 0-1.8.7-2.6zm-4.6 4.9c-.9.1-1.8-.4-2.7-1.4.9-1 1.9-1.4 2.7-1.4 1.1.1 1.9.9 2.3 1.4-.4.5-1.2 1.3-2.3 1.4zm-7.4 8v-2.7c0-.2.2-.4.4-.4h20.5c.2 0 .4.2.4.4v2.7c0 .2-.2.4-.4.4H1.7c-.2 0-.3-.2-.3-.4zM19.1 32l-6.8-5.9c-.3-.2-.6-.2-.9 0L4.7 32l-.3-2.7 7.5-6.6 7.5 6.6-.3 2.7zm-8.2-10.2l-6.7 5.9-.6-5.5c0-.1 0-.2.1-.2 0-.1.1-.1.2-.1h7zM9.5 34.7l2.5-2.1 2.5 2.1h-5zm8.9 0h-1.9l-4.1-3.5c-.3-.2-.6-.2-.9 0l-4.1 3.5H5.5c-.2 0-.5-.2-.5-.5l-.1-.6 7-6.1 7 6.1-.1.6c.1.2-.2.5-.4.5zm1.8-12.8c0 .1.1.1.1.2l-.6 5.5-6.7-5.9h7c.1.1.2.1.2.2z"/></symbol><symbol viewBox="0 0 24 24" enable-background="new 0 0 24 24" id="close"><g><path fill="#AFBEBF" d="M21.8 23.8c-.5 0-1-.2-1.4-.6L.8 3.6C0 2.8 0 1.5.8.8s2-.8 2.8 0l19.7 19.7c.8.8.8 2 0 2.8-.4.3-1 .5-1.5.5zM2.2 23.8c-.5 0-1-.2-1.4-.6-.8-.8-.8-2 0-2.8L20.4.8c.8-.8 2-.8 2.8 0s.8 2 0 2.8L3.6 23.2c-.4.4-.9.6-1.4.6z"/></g></symbol><symbol viewBox="0 0 200 200" enable-background="new 0 0 200 200" id="copy_writing"><path d="M197.1 73.9H3c-1.2 0-2.2-1-2.2-2.2V58.9c0-1.2 1-2.2 2.2-2.2h194.1c1.2 0 2.2 1 2.2 2.2v12.7c0 1.3-1 2.3-2.2 2.3zM197.1 108.2H3c-1.2 0-2.2-1-2.2-2.2V93.3C.8 92 1.8 91 3 91h194.1c1.2 0 2.2 1 2.2 2.2V106c0 1.2-1 2.2-2.2 2.2zM197.1 39.6H3c-1.2 0-2.2-1-2.2-2.2V24.6c0-1.2 1-2.2 2.2-2.2h194.1c1.2 0 2.2 1 2.2 2.2v12.7c0 1.3-1 2.3-2.2 2.3zM197.1 142.5H3c-1.2 0-2.2-1-2.2-2.2v-12.7c0-1.2 1-2.2 2.2-2.2h194.1c1.2 0 2.2 1 2.2 2.2v12.7c0 1.2-1 2.2-2.2 2.2zM96.6 176.8H3c-1.2 0-2.2-1-2.2-2.2v-12.7c0-1.2 1-2.2 2.2-2.2h93.6c1.2 0 2.2 1 2.2 2.2v12.7c0 1.2-1 2.2-2.2 2.2z"/></symbol><symbol viewBox="0 0 200 200" enable-background="new 0 0 200 200" id="development"><path d="M182.6 177.4H17.3c-9.2 0-16.8-7.5-16.8-16.8V39.2C.5 30 8 22.4 17.3 22.4h165.3c9.2 0 16.8 7.5 16.8 16.8v121.5c0 9.2-7.6 16.7-16.8 16.7zM17.3 35.9c-1.8 0-3.3 1.5-3.3 3.3v121.5c0 1.8 1.5 3.3 3.3 3.3h165.3c1.8 0 3.3-1.5 3.3-3.3V39.2c0-1.8-1.5-3.3-3.3-3.3H17.3zM171.2 64.6H25.5c-.9 0-1.7-.9-1.7-2V50.9c0-1.1.7-2 1.7-2h145.7c.9 0 1.7.9 1.7 2v11.6c-.1 1.2-.8 2.1-1.7 2.1zM95.7 96H25.5c-.9 0-1.7-.9-1.7-2V82.3c0-1.1.7-2 1.7-2h70.2c.9 0 1.7.9 1.7 2V94c0 1.1-.7 2-1.7 2zM108.3 96h-4.6c-.9 0-1.7-.9-1.7-2V82.3c0-1.1.7-2 1.7-2h4.6c.9 0 1.7.9 1.7 2V94c0 1.1-.8 2-1.7 2z"/></symbol><symbol viewBox="0 0 200 200" enable-background="new 0 0 200 200" id="discovery"><path d="M99.7 1C45 1 .5 45.5.5 100.2s44.5 99.2 99.2 99.2 99.2-44.5 99.2-99.2S154.4 1 99.7 1zm9.4 180.5v-12.9c0-1.7-1.4-3-3-3h-9.6c-1.4 0-2.6 1.1-2.6 2.6v13.3c0 1.3-1.2 2.4-2.5 2.2-38.5-4.6-69.6-35.3-74.2-73.8-.2-1.3.9-2.5 2.2-2.5h10.7c1.7 0 3-1.4 3-3v-9c0-1.7-1.4-3.1-3.1-3.1H19.5c-1.3 0-2.4-1.2-2.2-2.5 4.6-38.5 35.7-69 74.2-73.6 1.3-.2 2.5.9 2.5 2.2v12.7c0 1.7 1.4 3 3 3h8.7c1.9 0 3.5-1.6 3.5-3.5V18.4c0-1.3 1.2-2.4 2.5-2.2 38.5 4.6 68.7 35.1 73.3 73.6.2 1.3-.9 2.5-2.2 2.5h-12.3c-1.7 0-3 1.4-3 3v9.2c0 1.6 1.3 2.9 2.9 2.9h12.4c1.3 0 2.4 1.2 2.2 2.5-4.6 38.5-34.8 69.2-73.3 73.8-1.4.2-2.6-.8-2.6-2.2zM135.9 62.4l-35.2 25.5c-.3 0-.7-.1-1-.1-6.5 0-11.8 5.3-11.8 11.8 0 .3.1.7.1 1l-25.5 35.2c-.5.7.4 1.5 1 1l35.2-25.5c.3 0 .7.1 1 .1 6.5 0 11.8-5.3 11.8-11.8 0-.3-.1-.7-.1-1l25.5-35.2c.5-.7-.3-1.5-1-1z"/></symbol><symbol viewBox="0 0 24 24" enable-background="new 0 0 24 24" id="email"><path d="M12 .3c1.6 0 3.1.3 4.6.9 1.4.6 2.7 1.5 3.7 2.5 1.1 1.1 1.9 2.3 2.5 3.7.6 1.4.9 2.9.9 4.6 0 1.6-.3 3.1-.9 4.6-.6 1.4-1.5 2.7-2.5 3.7-1.1 1.1-2.3 1.9-3.7 2.5s-2.9.9-4.6.9c-1.6 0-3.1-.3-4.6-.9s-2.7-1.5-3.7-2.5c-1.1-1.1-1.9-2.3-2.5-3.7C.6 15.2.3 13.7.3 12c0-1.6.3-3.1.9-4.6.6-1.4 1.5-2.6 2.5-3.7C4.8 2.6 6 1.8 7.5 1.2 8.9.6 10.4.3 12 .3zM4.7 16.4s0 .1 0 0v.4L9 12.5l-4.3-5v8.9zM6.2 6.1h-.5c-.1 0-.1 0-.1.1l6.5 7.5 6.5-7.5-.1-.1H6.2zm11.7 11.8s.1 0 0 0h.4l-4.2-4.2-2.1 2.4-2-2.4-4.2 4.2h12.1zm1.5-1.5V7.6l-4.3 5 4.3 4.3v-.5c0 .1 0 0 0 0z"/></symbol><symbol viewBox="0 0 24 24" enable-background="new 0 0 24 24" id="facebook-circle"><path d="M16.6 1.2c1.4.6 2.7 1.5 3.7 2.5 1.1 1.1 1.9 2.3 2.5 3.7.6 1.4.9 2.9.9 4.6 0 1.5-.3 2.9-.8 4.2-.5 1.3-1.2 2.5-2.2 3.6-.9 1-2 1.9-3.3 2.6-1.3.7-2.6 1.1-4 1.3V15h4l.4-2.9h-4.4v-1.5c0-.2 0-.4.1-.6.1-.2.2-.3.3-.5.1-.1.3-.2.5-.3.2-.1.4-.1.6-.1h2.9v-3h-2.9c-.6 0-1.2.1-1.7.3-.5.2-1 .5-1.4.9-.4.4-.7.9-.9 1.4-.2.5-.3 1.1-.3 1.7V12H8.3v2.9h2.2v8.7c-1.4-.2-2.8-.6-4-1.3-1.3-.7-2.3-1.5-3.3-2.6-.9-1-1.7-2.2-2.2-3.6-.5-1.3-.8-2.7-.8-4.2 0-1.6.3-3.1.9-4.6.7-1.3 1.5-2.5 2.6-3.6S6 1.8 7.4 1.2C8.8.6 10.3.3 12 .3c1.6 0 3.1.3 4.6.9z"/></symbol><symbol viewBox="0 0 50 50" enable-background="new 0 0 50 50" id="left-arrow"><path d="M1.4 25c0 .5.2 1.1.6 1.4l20 20c.4.4.9.7 1.4.7 1.1 0 1.9-.9 1.9-1.9 0-.5-.1-.8-.4-1.2L14 29.4c-.4-.5 0-1.2.6-1.3l32.2-1.4h.2c.9 0 1.6-.8 1.6-1.7 0-1-.8-1.7-1.8-1.7l-32.2-1.4c-.6 0-1-.8-.6-1.3L25 6c.2-.3.4-.7.4-1.1 0-1.1-.9-1.9-1.9-1.9-.6 0-1.1.2-1.4.6l-20 20c-.5.3-.7.8-.7 1.4z"/></symbol><symbol viewBox="-151 660.8 786.9 199.1" enable-background="new -151 660.8 786.9 199.1" id="logo"><path d="M-27.2 707.4c-8.2-11.8-16.9-22.9-24.7-31.4-11.4-12.5-16.5-15.1-20.6-15.1-3.8 0-9.7 1.7-22.2 15-7.7 8.3-16.4 19.4-24.6 31.5-9.5 14.1-31.8 49.6-31.8 73.1 0 14.6 5.1 28.5 14.7 40.3 8.9 10.9 21.1 19.2 35.2 24 1.5.5 3.2-.4 3.7-1.9l2.6-8c.5-1.5-.3-3.1-1.8-3.6-11.6-4-21.5-10.7-28.7-19.5-7.6-9.2-11.6-20.1-11.6-31.4 0-13.1 10.8-37.5 28.3-63.6 7.5-11.3 15.6-21.9 22.9-29.9s11.2-10.8 12.9-11.7c5.2 3.6 19.6 18.9 35.7 42.5 18.2 26.6 29.1 50 29.1 62.7 0 28.8-27 52.5-59.3 54.8v-37c8.6-.2 16.9-2.1 24.4-5.9.6-.3 1-.8 1.2-1.4s.2-1.3-.2-1.9l-3.3-6.5c-.6-1.1-2-1.6-3.2-1.1-5.9 2.9-12.5 4.4-19 4.5v-31.8c6.5-.1 12.7-1.2 18.7-3.4.6-.2 1.1-.7 1.4-1.3.3-.6.3-1.3 0-1.9l-2.6-6.8c-.5-1.2-1.9-1.8-3.1-1.4-4.6 1.7-10.2 2.5-14.5 2.6V705c0-1.5-1.3-2.5-2.8-2.5h-8.7c-1.5 0-3.7 1-3.7 2.5v15c-2.1-.1-6.4-.5-9.6-1.3-1.2-.3-2.4.5-2.7 1.7l-1.8 7c-.2.6 0 1.3.3 1.9.3.6.4 1 1.1 1.1 4.3 1.1 8.5 1.7 12.8 1.7v31.4c-4.3-.1-9.4-1-14-2.6-1.2-.5-2.4.2-2.8 1.4l-2.5 6.8c-.2.6-.2 1.3.1 1.9.3.6.3 1.1.9 1.3 6 2.2 11.9 3.3 18.3 3.4v31.8c-6.5-.2-12.2-1.7-18-4.5-1.2-.6-2.4-.1-3 1l-3.2 6.5c-.3.6-.3 1.3-.1 1.9s.2 1.1.8 1.4c7.4 3.6 17.1 5.6 23.5 5.8v38.6c0 1.5 2.1 1.8 3.7 1.8h8.7c1.5 0 2.8-.3 2.8-1.8v-8.8c19.4-1 36.5-8 50-19.7 15.1-13 23.3-30.5 23.3-49.2.3-22-20.6-55.3-33-73.1zM41.7 714.5c0-1.2.9-2.1 2.1-2.1H87c30.1 0 40.7 17.2 40.7 34.4 0 16.7-10.8 34.7-40.7 34.7H62.9c-1.2 0-2.1.9-2.1 2.1v38.1c0 1.2-.9 2.1-2.1 2.1H43.9c-1.2 0-2.1-.9-2.1-2.1V714.5zm45.2 51.4c15.4 0 21.8-8.9 21.8-18.9 0-10.2-6.4-18.6-21.6-18.6H62.9c-1.2 0-2.1.9-2.1 2.1v33.3c0 1.2.9 2.1 2.1 2.1h24zM176.9 774.1c1.1-.1 2-1 2-2.1v-7.4c0-7-4.1-11.8-13.7-11.8-7.7 0-16.1 3.2-24.7 7.3-1 .5-2.3.1-2.8-1l-5-10.7c-.5-1.1 0-2.3 1-2.8 9.8-4.5 21.7-8 32.1-8 22.4 0 31.5 11.3 31.5 27.3v38c0 4.7 2.3 7 6 7.5 1 .1 1.8 1 1.8 2.1v9.3c0 1.2-.9 2.1-2.1 2.1-11.1-.2-16.7-2.5-20.6-7.8-.7-1-2.2-1.2-3.1-.3-6.4 6-14.1 9.7-24.3 9.7-14.9 0-25.3-9.1-25.3-22.3 0-19.7 20.4-27.4 47.2-29.1zm-17.3 37.5c8.1 0 14.3-3.2 18.6-7.6.4-.4.6-.9.6-1.5v-14.9c0-1.2-1-2.2-2.2-2.1-14 .8-28.4 4-28.4 16.3 0 6 4.5 9.8 11.4 9.8zM216.5 739.6h12.9c1.1 0 2 .8 2.1 1.9l.6 6.1c.2 1.9 2.6 2.6 3.8 1.1 5.7-7.6 12.8-11.2 21.3-11.2 3.6 0 6.7.5 9.4 1.4 1 .3 1.6 1.4 1.4 2.4l-2.5 12.9c-.2 1.2-1.5 2-2.7 1.6-2.5-.8-5.1-1.2-8.4-1.2-9.1 0-15.4 5.7-21.2 16.4-.2.3-.2.7-.2 1v49.8c0 1.2-.9 2.1-2.1 2.1h-14.2c-1.2 0-2.1-.9-2.1-2.1v-80c-.1-1.3.8-2.2 1.9-2.2zM278.6 704.8h14.2c1.2 0 2.1.9 2.1 2.1v13.6c0 1.2-.9 2.1-2.1 2.1h-14.2c-1.2 0-2.1-.9-2.1-2.1v-13.6c0-1.2.9-2.1 2.1-2.1zm0 35.6h14.2c1.2 0 2.1.9 2.1 2.1v79.2c0 1.2-.9 2.1-2.1 2.1h-14.2c-1.2 0-2.1-.9-2.1-2.1v-79.2c0-1.1.9-2.1 2.1-2.1zM311.5 804.8c.6-1 1.8-1.3 2.8-.8 7.4 4.1 15.8 6.9 24.5 6.9 8.9 0 15.3-3 15.3-10.2 0-16.8-47.4-6.4-47.4-37.7 0-16.4 14.5-25.4 32-25.4 8.6 0 18.3 1.9 28.3 6.2 1.1.5 1.6 1.8 1.1 2.9l-5 9.9c-.5 1-1.7 1.4-2.7.9-7.2-3.3-15.4-5.3-21.4-5.3-8 0-13.8 3.2-13.8 10 0 16.6 47.1 5.4 47.1 37.5 0 16.8-13.8 25.8-33.1 25.8-12 0-22.4-2.9-32.3-8.3-1-.6-1.4-1.9-.8-2.9l5.4-9.5zM384.7 703.7h14.2c1.2 0 2.1.9 2.1 2.1v115.9c0 1.2-.9 2.1-2.1 2.1h-14.2c-1.2 0-2.1-.9-2.1-2.1V705.8c0-1.2.9-2.1 2.1-2.1zM453.1 737.6c24.3 0 35.9 16.4 35.9 38.5 0 1.9-.2 4.5-.4 6.6-.1 1.1-1 1.9-2.1 1.9h-53.8c-1.2 0-2.2 1.1-2.1 2.3 1.5 15.7 9.7 23.9 24 23.9 7.9 0 15.4-2.7 22-6.6.9-.6 2.2-.3 2.8.7l5.8 8.8c.7 1 .4 2.3-.6 2.9-9.3 5.9-19.9 9.3-31.1 9.3-25.3 0-41.7-16.7-41.7-44.8.1-26.7 17.9-43.5 41.3-43.5zm-19.2 34.9h35.2c1.2 0 2.1-1 2.1-2.2-.6-10.7-5.4-18.9-17.6-18.9-10.5 0-18.7 6.8-21.7 18.5-.4 1.4.6 2.6 2 2.6zM543.1 774.1c1.1-.1 2-1 2-2.1v-7.4c0-7-4.1-11.8-13.7-11.8-7.7 0-16.1 3.2-24.7 7.3-1 .5-2.3.1-2.8-1l-5-10.7c-.5-1.1 0-2.3 1-2.8 9.8-4.5 21.7-8 32.1-8 22.4 0 31.5 11.3 31.5 27.3v38c0 4.7 2.3 7 6 7.5 1 .1 1.8 1 1.8 2.1v9.3c0 1.2-.9 2.1-2.1 2.1-11.1-.2-16.7-2.5-20.6-7.8-.7-1-2.2-1.2-3.1-.3-6.4 6-14.1 9.7-24.3 9.7-14.9 0-25.3-9.1-25.3-22.3 0-19.7 20.5-27.4 47.2-29.1zm-17.3 37.5c8.1 0 14.3-3.2 18.6-7.6.4-.4.6-.9.6-1.5v-14.9c0-1.2-1-2.2-2.2-2.1-14 .8-28.5 4-28.5 16.3 0 6 4.7 9.8 11.5 9.8zM584.1 754.4h-10c-1.2 0-2.1-.9-2.1-2.1v-9.6c0-1.2.9-2.1 2.1-2.1h10c1.2 0 2.1-.9 2.1-2.1v-3c0-24 14-32.9 33.6-32.9 5 0 10.4 1 14.7 2.4 1.1.3 1.7 1.6 1.4 2.7l-3.3 9.5c-.4 1-1.4 1.6-2.5 1.4-2.8-.7-5.9-1.2-9.7-1.2-10.7 0-15.6 6-15.6 18.1v3.1c0 1.2.9 2.1 2.1 2.1h18.2c1.2 0 2.1.9 2.1 2.1v9.6c0 1.2-.9 2.1-2.1 2.1h-18.2c-1.2 0-2.1.9-2.1 2.1v65.2c0 1.2-.9 2.1-2.1 2.1h-14.2c-1.2 0-2.1-.9-2.1-2.1v-65.2c-.2-1.2-1.1-2.2-2.3-2.2z"/></symbol><symbol viewBox="-151 660.8 157.1 199.1" enable-background="new -151 660.8 157.1 199.1" id="logo_compact"><path d="M-27.2 707.4c-8.2-11.8-16.9-22.9-24.7-31.4-11.4-12.5-16.5-15.1-20.6-15.1-3.8 0-9.7 1.7-22.2 15-7.7 8.3-16.4 19.4-24.6 31.5-9.5 14.1-31.8 49.6-31.8 73.1 0 14.6 5.1 28.5 14.7 40.3 8.9 10.9 21.1 19.2 35.2 24 1.5.5 3.2-.4 3.7-1.9l2.6-8c.5-1.5-.3-3.1-1.8-3.6-11.6-4-21.5-10.7-28.7-19.5-7.6-9.2-11.6-20.1-11.6-31.4 0-13.1 10.8-37.5 28.3-63.6 7.5-11.3 15.6-21.9 22.9-29.9s11.2-10.8 12.9-11.7c5.2 3.6 19.6 18.9 35.7 42.5 18.2 26.6 29.1 50 29.1 62.7 0 28.8-27 52.5-59.3 54.8v-37c8.6-.2 16.9-2.1 24.4-5.9.6-.3 1-.8 1.2-1.4s.2-1.3-.2-1.9l-3.3-6.5c-.6-1.1-2-1.6-3.2-1.1-5.9 2.9-12.5 4.4-19 4.5v-31.8c6.5-.1 12.7-1.2 18.7-3.4.6-.2 1.1-.7 1.4-1.3.3-.6.3-1.3 0-1.9l-2.6-6.8c-.5-1.2-1.9-1.8-3.1-1.4-4.6 1.7-10.2 2.5-14.5 2.6V705c0-1.5-1.3-2.5-2.8-2.5h-8.7c-1.5 0-3.7 1-3.7 2.5v15c-2.1-.1-6.4-.5-9.6-1.3-1.2-.3-2.4.5-2.7 1.7l-1.8 7c-.2.6 0 1.3.3 1.9.3.6.4 1 1.1 1.1 4.3 1.1 8.5 1.7 12.8 1.7v31.4c-4.3-.1-9.4-1-14-2.6-1.2-.5-2.4.2-2.8 1.4l-2.5 6.8c-.2.6-.2 1.3.1 1.9.3.6.3 1.1.9 1.3 6 2.2 11.9 3.3 18.3 3.4v31.8c-6.5-.2-12.2-1.7-18-4.5-1.2-.6-2.4-.1-3 1l-3.2 6.5c-.3.6-.3 1.3-.1 1.9s.2 1.1.8 1.4c7.4 3.6 17.1 5.6 23.5 5.8v38.6c0 1.5 2.1 1.8 3.7 1.8h8.7c1.5 0 2.8-.3 2.8-1.8v-8.8c19.4-1 36.5-8 50-19.7 15.1-13 23.3-30.5 23.3-49.2.3-22-20.6-55.3-33-73.1z"/></symbol><symbol viewBox="0 0 32 32" id="menu"><path d="M0 4.282h32v3.906H0zM0 14.047h32v3.906H0zM0 23.813h32v3.906H0z"/></symbol><symbol viewBox="0 0 200 200" enable-background="new 0 0 200 200" id="motion"><path d="M2.2 77.5h119.1c1.1 0 2-.9 2-2V64.3c0-1.1-.9-2-2-2H2.2c-1.1 0-2 .9-2 2v11.2c0 1.1.9 2 2 2zM53 107.7h59.7c1.1 0 2-.9 2-2V94.6c0-1.1-.9-2-2-2H53c-1.1 0-2 .9-2 2v11.2c0 1 .9 1.9 2 1.9zM102.7 138h18.6c1.1 0 2-.9 2-2v-11.2c0-1.1-.9-2-2-2h-18.6c-1.1 0-2 .9-2 2V136c0 1.1.9 2 2 2zM161.8 137.6c-20.8 0-37.6-16.9-37.6-37.6s16.9-37.6 37.6-37.6 37.6 16.9 37.6 37.6-16.8 37.6-37.6 37.6zm0-59.5c-12 0-21.8 9.8-21.8 21.8s9.8 21.8 21.8 21.8 21.8-9.8 21.8-21.8-9.7-21.8-21.8-21.8z"/></symbol><symbol viewBox="0 0 200 200" enable-background="new 0 0 200 200" id="photography"><path d="M149 15.1H50.7c-.5 0-.9.3-1.2.7L.3 99.3c-.2.4-.2.9 0 1.4l49.2 83.6c.2.4.7.7 1.2.7H149c.5 0 .9-.3 1.2-.7l49.2-83.6c.2-.4.2-.9 0-1.4l-49.2-83.6c-.3-.4-.7-.6-1.2-.6zM45.9 151.9l-28.5-48.3c-.4-.6-.2-1.5.5-1.8L49.5 84c.9-.5 2 .2 2 1.2l-3.1 66c-.1 1.4-1.8 1.8-2.5.7zm18.4-15.3l53.9 32.6c1.2.7.7 2.5-.7 2.5H62.1c-.8 0-1.4-.6-1.3-1.4l1.5-32.6c0-1.1 1.1-1.7 2-1.1zm-1.2-17l2-43.6c0-.5.3-.9.7-1.1l32.3-18.1c.4-.2.9-.2 1.3 0l36.9 22.1c.4.3.7.7.6 1.2l-1.8 42.9c0 .5-.3.9-.7 1.1l-33.6 18.5c-.4.2-.9.2-1.3 0l-35.8-21.7c-.4-.4-.6-.8-.6-1.3zM135.7 63l-58-34.7h60c.8 0 1.4.6 1.3 1.4l-1.3 32.2c0 1-1.1 1.6-2 1.1zm16-18.6l30.6 51.9c.4.6.2 1.5-.5 1.8l-30.9 17c-.9.5-2-.2-2-1.2l2.8-69.5zm-94.5-13l26.5 15.9c.9.5.9 1.8 0 2.3L30.1 79.7c-1.2.7-2.5-.7-1.8-1.8l27.1-46c.3-.6 1.2-.8 1.8-.5zm85.3 137L115.3 152c-.9-.5-.9-1.8 0-2.3l58.8-32.3-29.8 50.6c-.3.6-1.1.8-1.8.4z"/></symbol><symbol viewBox="0 0 24 24" enable-background="new 0 0 24 24" id="retweet"><path fill="#AFBEBF" d="M10.5 14.4l2.9 2.9H4.3v-6.7h-4l5.9-5.9 5.9 5.9H7.2v3.9h3.3zm13.2-1l-5.9 5.9-5.8-5.9h4.8V8.6h-3.3l-2.9-2.9h9.2v7.7h3.9z"/></symbol><symbol viewBox="0 0 50 50" enable-background="new 0 0 50 50" id="right-arrow"><path d="M48.6 25c0-.5-.2-1.1-.6-1.4l-20-20c-.3-.4-.8-.6-1.4-.6-1.1 0-1.9.9-1.9 1.9 0 .5.1.8.4 1.2l11 14.6c.4.5 0 1.2-.6 1.3L3.2 23.3H3c-.9 0-1.6.8-1.6 1.7 0 1 .8 1.7 1.8 1.7l32.2 1.4c.6 0 1 .8.6 1.3L25 44c-.2.3-.4.7-.4 1.1 0 1.1.9 1.9 1.9 1.9.6 0 1.1-.2 1.4-.6l20-20c.5-.3.7-.8.7-1.4z"/></symbol><symbol viewBox="0 0 24 24" enable-background="new 0 0 24 24" id="twitter"><path d="M23.7 6.9c-.2.2-.3.5-.5.7-.2.2-.4.4-.6.7l-.6.6c-.2.2-.5.4-.7.6V10.1c0 1.6-.3 3.2-.9 4.8-.6 1.6-1.5 3.1-2.6 4.4-1.2 1.3-2.6 2.4-4.3 3.2-1.7.8-3.7 1.2-5.9 1.2-.7 0-1.3 0-2-.1s-1.3-.2-1.9-.4c-.7-.2-1.3-.4-1.9-.7-.6-.3-1.1-.6-1.7-.9h1.2c.6 0 1.1 0 1.7-.1.5-.1 1.1-.2 1.6-.4s1-.4 1.4-.6c.5-.3.9-.6 1.3-.9-.6 0-1.1-.1-1.5-.3-.5-.2-.9-.4-1.3-.7-.4-.3-.7-.6-1-1.1-.3-.4-.5-.9-.7-1.4.1 0 .2.1.3.1H4.6c.1 0 .2 0 .3-.1-.6-.1-1.1-.3-1.5-.6-.5-.3-.9-.6-1.2-1.1-.4-.4-.6-.9-.8-1.4-.2-.5-.3-1.1-.3-1.7.2.1.3.2.5.3.2.1.3.1.5.2.2 0 .4.1.6.1h.6c-.3-.2-.6-.5-.9-.7s-.5-.6-.7-.9c-.2-.4-.3-.8-.4-1.2-.1-.3-.2-.7-.2-1.2v-.6c0-.2.1-.4.1-.6.1-.2.1-.4.2-.6l.3-.6c.6.7 1.2 1.4 2 2S5.3 8.6 6.2 9c.8.4 1.7.8 2.7 1 .9.3 1.9.4 2.9.5 0-.1-.1-.2-.1-.3V9.3c0-.7.1-1.3.4-1.9.2-.4.5-.9.9-1.4.4-.4.9-.8 1.5-1 .6-.2 1.2-.4 1.9-.4.4 0 .7 0 1 .1l.9.3c.3.1.6.3.8.5.3.2.5.4.7.6.3-.1.6-.1.8-.2.3-.1.5-.2.8-.3.2-.1.5-.2.7-.3.4-.1.7-.2.9-.3-.1.3-.2.5-.3.8-.1.3-.3.5-.5.7l-.6.6c-.2.2-.4.4-.7.5.2 0 .5-.1.7-.1.2 0 .5-.1.7-.2.2-.1.5-.1.7-.2.2 0 .5-.1.7-.2z"/></symbol><symbol viewBox="0 0 24 24" enable-background="new 0 0 24 24" id="twitter-circle"><path d="M12 .3c1.6 0 3.1.3 4.6.9 1.4.6 2.7 1.5 3.7 2.5 1.1 1.1 1.9 2.3 2.5 3.7.6 1.4.9 2.9.9 4.6 0 1.6-.3 3.1-.9 4.6-.6 1.4-1.5 2.7-2.5 3.7-1.1 1.1-2.3 1.9-3.7 2.5s-2.9.9-4.6.9c-1.6 0-3.1-.3-4.6-.9s-2.7-1.5-3.7-2.5c-1.1-1.1-1.9-2.3-2.5-3.7C.6 15.2.3 13.7.3 12c0-1.6.3-3.1.9-4.6.6-1.4 1.4-2.6 2.5-3.7S6 1.8 7.4 1.2c1.5-.6 3-.9 4.6-.9zm6.7 8.3c.2-.1.4-.3.5-.4.2-.1.3-.3.5-.4.2-.2.3-.3.4-.5.1-.2.2-.3.4-.5-.2.1-.3.2-.5.2s-.3.1-.5.1-.3.1-.5.1-.3.1-.5.1c.2-.1.4-.2.5-.3.2-.1.3-.3.4-.5.1-.2.2-.3.3-.5.2-.2.3-.4.3-.6-.2.1-.4.2-.5.3-.2.1-.3.2-.5.3-.2 0-.4 0-.6.1-.2 0-.4.1-.6.2-.2-.2-.4-.3-.6-.5s-.4-.3-.6-.3c-.2-.1-.4-.2-.7-.2-.2 0-.5-.1-.7-.1-.5 0-.9.1-1.4.3-.4.2-.8.4-1.1.7-.3.3-.6.7-.8 1.1-.2.4-.3.9-.3 1.4v.8c-.7 0-1.4-.1-2.1-.3s-1.1-.6-1.7-.9c-.6-.3-1.1-.7-1.7-1.1-.5-.4-1-.9-1.4-1.4-.1.1-.2.2-.2.4-.1.1-.1.2-.2.4 0 .1-.1.3-.1.4v.5c0 .3 0 .6.1.9.1.3.2.5.3.8.1.2.3.5.5.7l.6.6h-.4c-.1 0-.3-.1-.4-.1-.1 0-.3-.1-.4-.1-.1 0-.2-.1-.4-.2 0 .4.1.8.2 1.2.1.4.3.7.6 1 .2.3.5.6.9.8.4.2.7.3 1.1.4H5.2c.1.3.3.7.5 1 .2.3.5.6.7.8.3.2.6.4.9.5.4.1.7.2 1.1.2l-.9.6c-.1.1-.5.3-.8.4-.4.1-.7.2-1.1.3-.4.1-.8.1-1.2.1h-.8c.4.2.8.5 1.2.7.4.2.8.4 1.3.5.4.1.9.2 1.4.3.5.1 1 .1 1.4.1 1.6 0 3-.3 4.3-.9 1.2-.6 2.3-1.4 3.1-2.3.8-.9 1.5-2 1.9-3.2.4-1.2.6-2.3.6-3.5v-.2c-.1-.2-.1-.2-.1-.3z"/></symbol><symbol viewBox="0 0 200 200" enable-background="new 0 0 200 200" id="ui_ux"><path d="M197.5 110.7L162.8 83l13.5-10.7c2.6-2.1 2.6-6 0-8L103 5.7c-1.9-1.5-4.5-1.5-6.4 0L23.2 64.2c-2.6 2.1-2.6 6 0 8l13.5 10.7-34.8 27.7c-2.6 2.1-2.6 6 0 8l94.5 75.5c1.9 1.5 4.5 1.5 6.4 0l94.6-75.4c2.6-2 2.6-5.9.1-8zM46 64.2l50.6-40.3c1.9-1.5 4.5-1.5 6.4 0l50.5 40.4c2.6 2.1 2.6 6 0 8l-50.6 40.3c-1.9 1.5-4.5 1.5-6.4 0L46 72.2c-2.6-2.1-2.6-6 0-8zm128.7 54.6L102.9 176c-1.9 1.5-4.5 1.5-6.4 0l-71.8-57.4c-2.6-2.1-2.6-6 0-8L48 92l48.4 38.7c1.9 1.5 4.5 1.5 6.4 0L151.3 92l.2.2 23.1 18.4c2.7 2.2 2.7 6.1.1 8.2z"/></symbol><symbol viewBox="0 0 200 200" enable-background="new 0 0 200 200" id="video"><path d="M168.4 15.2H5.3c-2.4 0-4.4 2-4.4 4.4v160.7c0 2.4 2 4.4 4.4 4.4H194.7c2.4 0 4.4-2 4.4-4.4V19.5c0-2.4-2-4.4-4.4-4.4h-26.3zm15 20v14.7c0 2.4-2 4.4-4.4 4.4h-6.9c-2.4 0-4.4-2-4.4-4.4V35.2c0-2.4 2-4.4 4.4-4.4h6.9c2.4 0 4.4 2 4.4 4.4zm-31.3 0v51.2c0 2.4-2 4.4-4.4 4.4H52.2c-2.4 0-4.4-2-4.4-4.4V35.2c0-2.4 2-4.4 4.4-4.4h95.5c2.5 0 4.4 2 4.4 4.4zm-119.9 0v14.7c0 2.4-2 4.4-4.4 4.4h-6.9c-2.4 0-4.4-2-4.4-4.4V35.2c0-2.4 2-4.4 4.4-4.4h6.9c2.5 0 4.4 2 4.4 4.4zM20.9 69.9h6.9c2.4 0 4.4 2 4.4 4.4v12.1c0 2.4-2 4.4-4.4 4.4h-6.9c-2.4 0-4.4-2-4.4-4.4V74.3c.1-2.4 2-4.4 4.4-4.4zm11.3 40.9v14.7c0 2.4-2 4.4-4.4 4.4h-6.9c-2.4 0-4.4-2-4.4-4.4v-14.7c0-2.4 2-4.4 4.4-4.4h6.9c2.5 0 4.4 1.9 4.4 4.4zm-15.6 53.8v-14.7c0-2.4 2-4.4 4.4-4.4h6.9c2.4 0 4.4 2 4.4 4.4v14.7c0 2.4-2 4.4-4.4 4.4H21c-2.5 0-4.4-2-4.4-4.4zm31.2 0v-53.8c0-2.4 2-4.4 4.4-4.4h95.5c2.4 0 4.4 2 4.4 4.4v53.8c0 2.4-2 4.4-4.4 4.4H52.2c-2.4 0-4.4-2-4.4-4.4zm119.9 0v-14.7c0-2.4 2-4.4 4.4-4.4h6.9c2.4 0 4.4 2 4.4 4.4v14.7c0 2.4-2 4.4-4.4 4.4h-6.9c-2.4 0-4.4-2-4.4-4.4zm11.3-34.7h-6.9c-2.4 0-4.4-2-4.4-4.4v-14.7c0-2.4 2-4.4 4.4-4.4h6.9c2.4 0 4.4 2 4.4 4.4v14.7c0 2.4-2 4.4-4.4 4.4zm-11.3-43.5V74.3c0-2.4 2-4.4 4.4-4.4h6.9c2.4 0 4.4 2 4.4 4.4v12.1c0 2.4-2 4.4-4.4 4.4h-6.9c-2.4 0-4.4-2-4.4-4.4z"/></symbol><symbol viewBox="0 0 24 24" enable-background="new 0 0 24 24" id="vimeo-circle"><path d="M12 .3c1.6 0 3.1.3 4.6.9 1.4.6 2.7 1.5 3.7 2.5 1.1 1.1 1.9 2.3 2.5 3.7.6 1.4.9 2.9.9 4.6 0 1.6-.3 3.1-.9 4.6-.6 1.4-1.5 2.7-2.5 3.7-1.1 1.1-2.3 1.9-3.7 2.5s-2.9.9-4.6.9c-1.6 0-3.1-.3-4.6-.9s-2.7-1.5-3.7-2.5c-1.1-1.1-1.9-2.3-2.5-3.7C.6 15.2.3 13.7.3 12c0-1.6.3-3.1.9-4.6.6-1.4 1.4-2.6 2.5-3.7S6 1.8 7.4 1.2c1.5-.6 3-.9 4.6-.9zm6.9 10c.2-1.1.1-1.9-.5-2.3-.5-.5-1.2-.6-1.9-.6-.7.1-1.5.4-2.2 1-.7.6-1.1 1.3-1.3 2.3.4-.2.7-.4 1.1-.3.3 0 .5.1.7.3.2.2.2.5.2.8 0 .3-.1.7-.3 1.1-.2.4-.4.7-.6 1.1-.2.3-.4.6-.5.8-.2.2-.3.4-.5.5-.1.1-.3.2-.4.2-.1 0-.2-.1-.3-.2-.1-.1-.2-.3-.3-.6-.1-.2-.2-.5-.3-.9-.1-.3-.2-.7-.3-1.2-.1-.5-.2-1-.3-1.6-.1-.6-.2-1.1-.3-1.6-.2-.5-.4-.9-.6-1.2-.3-.3-.6-.4-1.1-.3-.5 0-.9.2-1.4.5-.5.4-1 .7-1.4 1.1-.4.4-.8.9-1.4 1.5l.6.7c.3-.2.5-.3.7-.4.2-.1.3-.2.5-.2s.3 0 .4.1c.1.1.3.5.5 1.1.2.7.4 1.4.7 2.2.2.8.5 1.6.7 2.3.2.7.4 1.2.5 1.4.1.2.3.5.5.7.2.2.4.4.7.6.3.2.5.2.8.3.3 0 .6-.1 1-.3.3-.2.8-.6 1.5-1.1.6-.6 1.3-1.2 2-2s1.3-1.7 1.9-2.7c.3-.9.7-2 .9-3.1z"/></symbol><symbol viewBox="0 0 200 200" enable-background="new 0 0 200 200" id="visual_identity"><path d="M99.9 171.9c-44.2 0-84.1-27.9-99.1-69.5-.6-1.8-.6-3.7 0-5.4 15.1-41.6 54.9-69.5 99.1-69.5 44.2 0 84.1 27.9 99.1 69.5.6 1.8.6 3.7 0 5.4-15.1 41.6-54.9 69.5-99.1 69.5zM18.1 96.6c-.9 2-.9 4.3 0 6.2 14.3 32 46.4 53.2 81.8 53.2s67.6-21.1 81.8-53.2c.9-2 .9-4.3 0-6.2-14.3-32-46.4-53.2-81.8-53.2-35.5 0-67.6 21.1-81.8 53.2zM100.2 138.2c-20.9 0-37.9-17-37.9-37.9s17-37.9 37.9-37.9 37.9 17 37.9 37.9-17 37.9-37.9 37.9zm0-59.9c-12.1 0-21.9 9.8-21.9 22s9.8 22 21.9 22c12.1 0 22-9.8 22-22s-9.9-22-22-22zM120 90.8l-15.9 9.5c-1.5.9-3.1-.8-2.3-2.3l9.5-15.9c.6-.9 1.8-1.1 2.6-.3l6.4 6.4c.8.7.6 2-.3 2.6z"/></symbol><symbol viewBox="0 0 200 200" enable-background="new 0 0 200 200" id="web_design"><path d="M198.7 95.1l-16.3-.1c-.4 0-.7-.2-.9-.5l-18.9-26.4c-1.5-2.2-2.9-4.5-4-6.9l-12.8-27.8c-.2-.3-.1-.7 0-1l8.8-15.2c.3-.5.1-1.2-.4-1.5l-7.6-4.4c-.5-.3-1.2-.1-1.5.4l-8.7 15.2c-.2.3-.5.5-.9.6l-30.2 2.9c-2.9.3-5.8.3-8.7 0l-31.1-2.9c-.4 0-.7-.2-.9-.6l-9-15.3c-.3-.5-1-.7-1.6-.4l-7.6 4.4c-.5.3-.7 1-.4 1.6l9.4 16c.2.3.2.6.1.9l-9.3 26.8c-1.4 4-3.5 7.7-6.3 10.9L23.3 91.1c-.2.3-.5.4-.9.4L1.8 91c-.6 0-1.1.5-1.2 1.1l-.2 8.8c0 .6.5 1.1 1.1 1.2l16.6.4c.4 0 .7.2.9.5l20.1 28c1.5 2.2 2.9 4.4 4 6.8l11.4 24.8c.2.3.1.7-.1 1.1l-10.3 17.2c-.3.5-.1 1.2.4 1.6L52 187c.5.3 1.2.1 1.6-.4l8.4-14c.2-.3.5-.5.9-.5l33.6-3.2c2.9-.3 5.8-.3 8.7 0l27.8 2.6c.4 0 .7.2.9.6l9.3 16.5c.3.5 1 .7 1.5.4l7.7-4.3c.5-.3.7-1 .4-1.5l-7.6-13.6c-.2-.3-.2-.6-.1-.9l10.5-30.2c1.4-4 3.5-7.7 6.3-11l17.9-20.8c.2-.3.5-.4.9-.4l18.1.1c.6 0 1.1-.5 1.1-1.1v-8.8c-.1-.9-.6-1.4-1.2-1.4zm-50.1-29.2c1.4 3 3.1 5.9 5 8.7l13.3 18.6c.5.8 0 1.8-.9 1.8l-21.9-.1c-.4 0-.7-.2-.9-.5l-8.8-12.3c-.7-1-1.3-2-1.8-3.1l-5.8-12.5c-.2-.3-.1-.7 0-1l10.8-18.8c.5-.8 1.6-.7 2 .1l9 19.1zm-69.5 49.6c-.8-1.7-1.8-3.4-2.9-4.9l-3.5-4.9c-.5-.8 0-1.8.9-1.8l14.6.4c.9 0 1.4 1 .9 1.7L82 117.8c-.5.8-1.6.7-2-.1l-.9-2.2zm1.9-33l.5-1.3c.3-.9 1.6-1 2-.2l6.1 10.4c.5.8-.1 1.7-1 1.7L77 92.8c-1 0-1.5-1.1-.8-1.9 2.1-2.4 3.8-5.3 4.8-8.4zm12.3-10.2l4.5.4c2 .2 4.1.2 6.1 0l4.2-.4c.9-.1 1.5.9 1.1 1.7l-7.4 12.8c-.4.8-1.5.8-2 0L92.2 74c-.4-.8.2-1.8 1.1-1.7zm7 39.9l7.1 12.7c.4.8-.2 1.8-1.1 1.7l-2.4-.2c-2-.2-4.1-.2-6.1 0l-6.3.6c-.9.1-1.6-.9-1.1-1.7l7.8-13c.5-.9 1.6-.9 2.1-.1zm20.3 4.3l-1.2 3.4c-.3.9-1.6 1-2.1.2l-7.2-12.7c-.4-.8.1-1.7 1-1.7l13.8.1c1 0 1.5 1.1.9 1.9l-.4.4c-2.1 2.4-3.7 5.3-4.8 8.4zM111 92.9l7.7-13.4c.5-.8 1.6-.7 2 .1l1.8 3.9c.8 1.7 1.8 3.4 2.9 4.9l3.2 4.4c.5.8 0 1.8-.9 1.8l-15.7-.1c-.9.1-1.5-.8-1-1.6zM95.4 41.3c3.6.3 7.2.3 10.8 0l20.8-2c.9-.1 1.5.9 1.1 1.7l-10.8 18.9c-.2.3-.5.5-.9.6l-13.6 1.3c-1.3.1-2.7.1-4 0l-14.1-1.3c-.4 0-.7-.2-.9-.6L72.8 41c-.5-.8.2-1.8 1.1-1.7l21.5 2zM48.3 79c3.7-4.3 6.5-9.2 8.4-14.5l5.6-16c.3-.9 1.6-1 2-.2L74.7 66c.2.3.2.6.1.9l-4.2 12c-.6 1.8-1.6 3.4-2.8 4.8L60.7 92c-.2.3-.5.4-.9.4l-20.2-.5c-1 0-1.5-1.1-.8-1.9l9.5-11zm4.8 54.1c-1.4-3-3.1-5.9-5-8.7l-14.2-19.8c-.5-.8 0-1.8.9-1.8l22.2.5c.4 0 .7.2.9.5l9.4 13.1c.7 1 1.3 2 1.8 3.1l4.8 10.3c.2.3.1.7-.1 1.1l-11.1 18.4c-.5.8-1.6.7-2-.1l-7.6-16.6zm53.1 24.6c-3.6-.3-7.2-.3-10.8 0L71.6 160c-.9.1-1.6-.9-1.1-1.7l11.4-18.9c.2-.3.5-.5.9-.5l16.1-1.5c1.3-.1 2.7-.1 4 0l11.6 1.1c.4 0 .7.2.9.6l10.6 18.8c.4.8-.2 1.8-1.1 1.7l-18.7-1.9zm47.2-37.7c-3.7 4.3-6.5 9.2-8.4 14.5l-6.6 19.1c-.3.9-1.6 1-2.1.2L126 135.5c-.2-.3-.2-.6-.1-.9l5-14.6c.6-1.8 1.6-3.4 2.8-4.8l7.8-9c.2-.3.5-.4.9-.4l20.6.1c1 0 1.5 1.1.9 1.9L153.4 120z"/></symbol></svg>