<?xml version="1.0" encoding="utf-8"?>
<!-- Generator: Adobe Illustrator 18.0.0, SVG Export Plug-In . SVG Version: 6.00 Build 0)  -->
<!DOCTYPE svg PUBLIC "-//W3C//DTD SVG 1.1//EN" "http://www.w3.org/Graphics/SVG/1.1/DTD/svg11.dtd">
<svg version="1.1" xmlns="http://www.w3.org/2000/svg" xmlns:xlink="http://www.w3.org/1999/xlink" x="0px" y="0px"
	 viewBox="0 0 24 36" enable-background="new 0 0 24 36" xml:space="preserve">
<g id="wireframe" display="none">
</g>
<g id="wireframe_menu" display="none">
</g>
<g id="Workspace">
</g>
<g id="Menu_wkspace">
	<g>
		<g>
			<path fill="#F5D23E" d="M24,20.1v-2.7c0-1-0.8-1.7-1.7-1.7h-9.6v-4.5c0.2,0,0.5,0,0.7,0c0.8,0,1.8-0.2,2.7-0.8
				c1.2-0.9,1.7-2.4,1.6-4.6c0,0,0,0,0-0.1c0,0,0-0.1,0-0.1c0,0,0-0.1-0.1-0.1c0,0,0-0.1-0.1-0.1c0,0-0.1-0.1-0.1-0.1c0,0,0,0-0.1,0
				c-0.1,0-0.1,0-0.2-0.1c0,0,0,0-0.1,0c-2.1-0.3-3.7,0.1-4.7,1.2c-0.8,0.9-1.1,1.9-1.1,2.8c-0.6-0.5-1.4-1-2.4-1.1
				C7.5,7.9,6,8.7,4.7,10.3c0,0,0,0,0,0.1c0,0,0,0.1-0.1,0.1c0,0,0,0.1,0,0.1c0,0,0,0.1,0,0.1c0,0,0,0.1,0,0.1c0,0,0,0.1,0,0.1
				c0,0,0,0.1,0.1,0.1c0,0,0,0,0,0.1c1.3,1.5,2.6,2.3,4,2.3c0.1,0,0.2,0,0.3,0c1-0.1,1.8-0.5,2.4-1.1v3.2H1.7c-1,0-1.7,0.8-1.7,1.7
				v2.7c0,1,0.8,1.7,1.7,1.7h0.5c0,0.2,0,0.3,0,0.5l1.4,12.1C3.7,35.3,4.6,36,5.5,36h12.9c0.9,0,1.7-0.7,1.9-1.7l1.4-12.1
				c0-0.2,0-0.3,0-0.5h0.7C23.2,21.8,24,21,24,20.1z M13.4,7.2c0.6-0.6,1.6-0.9,3-0.8c0,1.4-0.4,2.3-1.1,2.9c-0.8,0.7-2,0.6-2.6,0.5
				C12.6,9.1,12.7,8,13.4,7.2z M8.8,12.1c-0.9,0.1-1.8-0.4-2.7-1.4c0.9-1,1.9-1.4,2.7-1.4c1.1,0.1,1.9,0.9,2.3,1.4
				C10.7,11.2,9.9,12,8.8,12.1z M1.4,20.1v-2.7c0-0.2,0.2-0.4,0.4-0.4h20.5c0.2,0,0.4,0.2,0.4,0.4v2.7c0,0.2-0.2,0.4-0.4,0.4H20H3.8
				H1.7C1.5,20.5,1.4,20.3,1.4,20.1z M19.1,32l-6.8-5.9c-0.3-0.2-0.6-0.2-0.9,0L4.7,32l-0.3-2.7l7.5-6.6l7.5,6.6L19.1,32z
				 M10.9,21.8l-6.7,5.9l-0.6-5.5c0-0.1,0-0.2,0.1-0.2c0-0.1,0.1-0.1,0.2-0.1H10.9z M9.5,34.7l2.5-2.1l2.5,2.1H9.5z M18.4,34.7h-1.9
				l-4.1-3.5c-0.3-0.2-0.6-0.2-0.9,0l-4.1,3.5H5.5c-0.2,0-0.5-0.2-0.5-0.5l-0.1-0.6l7-6.1l7,6.1l-0.1,0.6
				C18.9,34.4,18.6,34.7,18.4,34.7z M20.2,21.9c0,0.1,0.1,0.1,0.1,0.2l-0.6,5.5l-6.7-5.9H20C20.1,21.8,20.2,21.8,20.2,21.9z"/>
		</g>
	</g>
</g>
<g id="menu_hover" display="none">
</g>
<g id="MODULAR_SCALE">
</g>
<g id="notes">
</g>
<g id="GRID">
</g>
<g id="V_guides" display="none">
</g>
<g id="H_guides" display="none">
</g>
</svg>
