<?xml version="1.0" encoding="utf-8"?>
<!-- Generator: Adobe Illustrator 18.0.0, SVG Export Plug-In . SVG Version: 6.00 Build 0)  -->
<!DOCTYPE svg PUBLIC "-//W3C//DTD SVG 1.1//EN" "http://www.w3.org/Graphics/SVG/1.1/DTD/svg11.dtd">
<svg version="1.1" xmlns="http://www.w3.org/2000/svg" xmlns:xlink="http://www.w3.org/1999/xlink" x="0px" y="0px"
	 viewBox="0 0 24 24" enable-background="new 0 0 24 24" xml:space="preserve">
<g id="wireframe" display="none">
</g>
<g id="wireframe_menu" display="none">
</g>
<g id="Workspace">
</g>
<g id="Menu_wkspace">
	<g>
		<g>
			<path fill="#AFBEBF" d="M21.8,23.8c-0.5,0-1-0.2-1.4-0.6L0.8,3.6C0,2.8,0,1.5,0.8,0.8s2-0.8,2.8,0l19.7,19.7c0.8,0.8,0.8,2,0,2.8
				C22.9,23.6,22.3,23.8,21.8,23.8z"/>
		</g>
		<g>
			<path fill="#AFBEBF" d="M2.2,23.8c-0.5,0-1-0.2-1.4-0.6c-0.8-0.8-0.8-2,0-2.8L20.4,0.8c0.8-0.8,2-0.8,2.8,0s0.8,2,0,2.8L3.6,23.2
				C3.2,23.6,2.7,23.8,2.2,23.8z"/>
		</g>
	</g>
</g>
<g id="menu_hover" display="none">
</g>
<g id="MODULAR_SCALE">
</g>
<g id="notes">
</g>
<g id="GRID">
</g>
<g id="V_guides" display="none">
</g>
<g id="H_guides" display="none">
</g>
</svg>
