<?xml version="1.0" encoding="utf-8"?>
<svg version="1.1" id="Layer_1" xmlns="http://www.w3.org/2000/svg" xmlns:xlink="http://www.w3.org/1999/xlink" x="0px" y="0px"
	 viewBox="0 0 200 200" enable-background="new 0 0 200 200" xml:space="preserve">
<g>
	<g>
		<path d="M197.1,73.9H3c-1.2,0-2.2-1-2.2-2.2V58.9c0-1.2,1-2.2,2.2-2.2h194.1c1.2,0,2.2,1,2.2,2.2v12.7
			C199.3,72.9,198.3,73.9,197.1,73.9z"/>
	</g>
	<g>
		<path d="M197.1,108.2H3c-1.2,0-2.2-1-2.2-2.2V93.3C0.8,92,1.8,91,3,91h194.1c1.2,0,2.2,1,2.2,2.2V106
			C199.3,107.2,198.3,108.2,197.1,108.2z"/>
	</g>
	<g>
		<path d="M197.1,39.6H3c-1.2,0-2.2-1-2.2-2.2V24.6c0-1.2,1-2.2,2.2-2.2h194.1c1.2,0,2.2,1,2.2,2.2v12.7
			C199.3,38.6,198.3,39.6,197.1,39.6z"/>
	</g>
	<g>
		<path d="M197.1,142.5H3c-1.2,0-2.2-1-2.2-2.2v-12.7c0-1.2,1-2.2,2.2-2.2h194.1c1.2,0,2.2,1,2.2,2.2v12.7
			C199.3,141.5,198.3,142.5,197.1,142.5z"/>
	</g>
	<g>
		<path d="M96.6,176.8H3c-1.2,0-2.2-1-2.2-2.2v-12.7c0-1.2,1-2.2,2.2-2.2h93.6c1.2,0,2.2,1,2.2,2.2v12.7
			C98.8,175.8,97.8,176.8,96.6,176.8z"/>
	</g>
</g>
</svg>
