<?xml version="1.0" encoding="utf-8"?>
<svg version="1.1" id="Layer_1" xmlns="http://www.w3.org/2000/svg" xmlns:xlink="http://www.w3.org/1999/xlink" x="0px" y="0px"
	 viewBox="0 0 200 200" enable-background="new 0 0 200 200" xml:space="preserve">
<g>
	<g>
		<path d="M182.6,177.4H17.3c-9.2,0-16.8-7.5-16.8-16.8V39.2c0-9.2,7.5-16.8,16.8-16.8h165.3
			c9.2,0,16.8,7.5,16.8,16.8v121.5C199.4,169.9,191.8,177.4,182.6,177.4z M17.3,35.9c-1.8,0-3.3,1.5-3.3,3.3v121.5
			c0,1.8,1.5,3.3,3.3,3.3h165.3c1.8,0,3.3-1.5,3.3-3.3V39.2c0-1.8-1.5-3.3-3.3-3.3H17.3z"/>
	</g>
	<g>
		<path d="M171.2,64.6H25.5c-0.9,0-1.7-0.9-1.7-2V50.9c0-1.1,0.7-2,1.7-2h145.7c0.9,0,1.7,0.9,1.7,2v11.6
			C172.8,63.7,172.1,64.6,171.2,64.6z"/>
	</g>
	<g>
		<path d="M95.7,96H25.5c-0.9,0-1.7-0.9-1.7-2V82.3c0-1.1,0.7-2,1.7-2h70.2c0.9,0,1.7,0.9,1.7,2V94
			C97.4,95.1,96.7,96,95.7,96z"/>
	</g>
	<g>
		<path d="M108.3,96h-4.6c-0.9,0-1.7-0.9-1.7-2V82.3c0-1.1,0.7-2,1.7-2h4.6c0.9,0,1.7,0.9,1.7,2V94
			C110,95.1,109.2,96,108.3,96z"/>
	</g>
</g>
</svg>
