<?xml version="1.0" encoding="utf-8"?>
<svg version="1.1" id="Layer_1" xmlns="http://www.w3.org/2000/svg" xmlns:xlink="http://www.w3.org/1999/xlink" x="0px" y="0px"
	 viewBox="0 0 200 200" enable-background="new 0 0 200 200" xml:space="preserve">
<path d="M99.7,1C45,1,0.5,45.5,0.5,100.2c0,54.7,44.5,99.2,99.2,99.2s99.2-44.5,99.2-99.2C198.9,45.5,154.4,1,99.7,1
	z M109.1,181.5v-12.9c0-1.7-1.4-3-3-3h-9.6c-1.4,0-2.6,1.1-2.6,2.6v13.3c0,1.3-1.2,2.4-2.5,2.2c-38.5-4.6-69.6-35.3-74.2-73.8
	c-0.2-1.3,0.9-2.5,2.2-2.5h10.7c1.7,0,3-1.4,3-3v-9c0-1.7-1.4-3.1-3.1-3.1H19.5c-1.3,0-2.4-1.2-2.2-2.5c4.6-38.5,35.7-69,74.2-73.6
	c1.3-0.2,2.5,0.9,2.5,2.2v12.7c0,1.7,1.4,3,3,3h8.7c1.9,0,3.5-1.6,3.5-3.5V18.4c0-1.3,1.2-2.4,2.5-2.2c38.5,4.6,68.7,35.1,73.3,73.6
	c0.2,1.3-0.9,2.5-2.2,2.5h-12.3c-1.7,0-3,1.4-3,3v9.2c0,1.6,1.3,2.9,2.9,2.9h12.4c1.3,0,2.4,1.2,2.2,2.5
	c-4.6,38.5-34.8,69.2-73.3,73.8C110.3,183.9,109.1,182.9,109.1,181.5z"/>
<path d="M135.9,62.4l-35.2,25.5c-0.3,0-0.7-0.1-1-0.1c-6.5,0-11.8,5.3-11.8,11.8c0,0.3,0.1,0.7,0.1,1l-25.5,35.2
	c-0.5,0.7,0.4,1.5,1,1l35.2-25.5c0.3,0,0.7,0.1,1,0.1c6.5,0,11.8-5.3,11.8-11.8c0-0.3-0.1-0.7-0.1-1l25.5-35.2
	C137.4,62.7,136.6,61.9,135.9,62.4z"/>
</svg>
