<?xml version="1.0" encoding="utf-8"?>
<!-- Generator: Adobe Illustrator 18.0.0, SVG Export Plug-In . SVG Version: 6.00 Build 0)  -->
<!DOCTYPE svg PUBLIC "-//W3C//DTD SVG 1.1//EN" "http://www.w3.org/Graphics/SVG/1.1/DTD/svg11.dtd">
<svg version="1.1" xmlns="http://www.w3.org/2000/svg" xmlns:xlink="http://www.w3.org/1999/xlink" x="0px" y="0px"
	 viewBox="0 0 24 24" enable-background="new 0 0 24 24" xml:space="preserve">
<g id="wireframe" display="none">
</g>
<g id="wireframe_menu" display="none">
</g>
<g id="Workspace">
</g>
<g id="Menu_wkspace">
	<g>
		<g>
			<path d="M12,0.3c1.6,0,3.1,0.3,4.6,0.9c1.4,0.6,2.7,1.5,3.7,2.5c1.1,1.1,1.9,2.3,2.5,3.7c0.6,1.4,0.9,2.9,0.9,4.6
				c0,1.6-0.3,3.1-0.9,4.6c-0.6,1.4-1.5,2.7-2.5,3.7c-1.1,1.1-2.3,1.9-3.7,2.5s-2.9,0.9-4.6,0.9c-1.6,0-3.1-0.3-4.6-0.9
				s-2.7-1.5-3.7-2.5c-1.1-1.1-1.9-2.3-2.5-3.7c-0.6-1.4-0.9-2.9-0.9-4.6c0-1.6,0.3-3.1,0.9-4.6C1.8,6,2.7,4.8,3.7,3.7
				C4.8,2.6,6,1.8,7.5,1.2C8.9,0.6,10.4,0.3,12,0.3z M4.7,16.4C4.7,16.4,4.7,16.5,4.7,16.4c0,0.1,0,0.2,0,0.2c0,0,0,0.1,0,0.1
				c0,0,0,0.1,0,0.1L9,12.5l-4.3-5v0v0V16.4z M6.2,6.1c-0.1,0-0.1,0-0.2,0s-0.1,0-0.1,0c0,0-0.1,0-0.2,0c-0.1,0-0.1,0-0.1,0.1
				l6.5,7.5l6.5-7.5c0,0-0.1-0.1-0.1-0.1c-0.1,0-0.1,0-0.2,0c0,0-0.1,0-0.1,0s-0.1,0-0.2,0H6.2z M17.9,17.9
				C17.9,17.9,18,17.9,17.9,17.9c0.1,0,0.2,0,0.2,0c0,0,0.1,0,0.1,0c0,0,0.1,0,0.1,0l-4.2-4.2L12,16.1L10,13.7l-4.2,4.2
				c0,0,0.1,0,0.1,0c0,0,0.1,0,0.1,0c0,0,0.1,0,0.1,0c0,0,0.1,0,0.1,0H17.9z M19.4,16.4V7.6v0v0l-4.3,5l4.3,4.3c0,0,0-0.1,0-0.1
				c0,0,0-0.1,0-0.1C19.4,16.6,19.4,16.5,19.4,16.4C19.4,16.5,19.4,16.4,19.4,16.4z"/>
		</g>
	</g>
</g>
<g id="menu_hover" display="none">
</g>
<g id="MODULAR_SCALE">
</g>
<g id="notes">
</g>
<g id="GRID">
</g>
<g id="V_guides" display="none">
</g>
<g id="H_guides" display="none">
</g>
</svg>
