<?xml version="1.0" encoding="utf-8"?>
<!-- Generator: Adobe Illustrator 18.0.0, SVG Export Plug-In . SVG Version: 6.00 Build 0)  -->
<!DOCTYPE svg PUBLIC "-//W3C//DTD SVG 1.1//EN" "http://www.w3.org/Graphics/SVG/1.1/DTD/svg11.dtd">
<svg version="1.1" xmlns="http://www.w3.org/2000/svg" xmlns:xlink="http://www.w3.org/1999/xlink" x="0px" y="0px"
	 viewBox="0 0 24 24" enable-background="new 0 0 24 24" xml:space="preserve">
<g id="wireframe" display="none">
</g>
<g id="wireframe_menu" display="none">
</g>
<g id="Workspace">
</g>
<g id="Menu_wkspace">
	<g>
		<g>
			<path d="M16.6,1.2c1.4,0.6,2.7,1.5,3.7,2.5c1.1,1.1,1.9,2.3,2.5,3.7c0.6,1.4,0.9,2.9,0.9,4.6c0,1.5-0.3,2.9-0.8,4.2
				c-0.5,1.3-1.2,2.5-2.2,3.6c-0.9,1-2,1.9-3.3,2.6c-1.3,0.7-2.6,1.1-4,1.3v-8.7h4l0.4-2.9h-4.4v-1.5c0-0.2,0-0.4,0.1-0.6
				c0.1-0.2,0.2-0.3,0.3-0.5c0.1-0.1,0.3-0.2,0.5-0.3c0.2-0.1,0.4-0.1,0.6-0.1h2.9V6.1h-2.9c-0.6,0-1.2,0.1-1.7,0.3
				c-0.5,0.2-1,0.5-1.4,0.9c-0.4,0.4-0.7,0.9-0.9,1.4c-0.2,0.5-0.3,1.1-0.3,1.7V12H8.3v2.9h2.2v8.7c-1.4-0.2-2.8-0.6-4-1.3
				c-1.3-0.7-2.3-1.5-3.3-2.6c-0.9-1-1.7-2.2-2.2-3.6c-0.5-1.3-0.8-2.7-0.8-4.2c0-1.6,0.3-3.1,0.9-4.6C1.8,6,2.6,4.8,3.7,3.7
				C4.8,2.6,6,1.8,7.4,1.2c1.4-0.6,2.9-0.9,4.6-0.9C13.6,0.3,15.1,0.6,16.6,1.2z"/>
		</g>
	</g>
</g>
<g id="menu_hover" display="none">
</g>
<g id="MODULAR_SCALE">
</g>
<g id="notes">
</g>
<g id="GRID">
</g>
<g id="V_guides" display="none">
</g>
<g id="H_guides" display="none">
</g>
</svg>
