<?xml version="1.0" encoding="utf-8"?>
<!DOCTYPE svg PUBLIC "-//W3C//DTD SVG 1.1//EN" "http://www.w3.org/Graphics/SVG/1.1/DTD/svg11.dtd">
<svg version="1.1" id="Layer_1" xmlns="http://www.w3.org/2000/svg" xmlns:xlink="http://www.w3.org/1999/xlink" x="0px" y="0px"
	 viewBox="0 0 50 50" enable-background="new 0 0 50 50" xml:space="preserve">
<path d="M1.4,25c0,0.5,0.2,1.1,0.6,1.4l20,20c0.4,0.4,0.9,0.7,1.4,0.7c1.1,0,1.9-0.9,1.9-1.9c0-0.5-0.1-0.8-0.4-1.2h0L14,29.4
	c-0.4-0.5,0-1.2,0.6-1.3l32.2-1.4l0,0h0H47v0c0.9,0,1.6-0.8,1.6-1.7c0-1-0.8-1.7-1.8-1.7c0,0,0,0,0,0l-32.2-1.4
	c-0.6,0-1-0.8-0.6-1.3L25,6l0,0c0.2-0.3,0.4-0.7,0.4-1.1c0-1.1-0.9-1.9-1.9-1.9c-0.6,0-1.1,0.2-1.4,0.6l-20,20
	C1.6,23.9,1.4,24.4,1.4,25z"/>
</svg>
