<?xml version="1.0" encoding="utf-8"?>
<svg version="1.1" id="Layer_1" xmlns="http://www.w3.org/2000/svg" xmlns:xlink="http://www.w3.org/1999/xlink" x="0px" y="0px"
	 viewBox="-151 660.8 157.1 199.1" enable-background="new -151 660.8 157.1 199.1" xml:space="preserve">
<g>
	<path d="M-27.2,707.4c-8.2-11.8-16.9-22.9-24.7-31.4c-11.4-12.5-16.5-15.1-20.6-15.1c-3.8,0-9.7,1.7-22.2,15
		c-7.7,8.3-16.4,19.4-24.6,31.5c-9.5,14.1-31.8,49.6-31.8,73.1c0,14.6,5.1,28.5,14.7,40.3c8.9,10.9,21.1,19.2,35.2,24
		c1.5,0.5,3.2-0.4,3.7-1.9l2.6-8c0.5-1.5-0.3-3.1-1.8-3.6c-11.6-4-21.5-10.7-28.7-19.5c-7.6-9.2-11.6-20.1-11.6-31.4
		c0-13.1,10.8-37.5,28.3-63.6c7.5-11.3,15.6-21.9,22.9-29.9s11.2-10.8,12.9-11.7c5.2,3.6,19.6,18.9,35.7,42.5
		c18.2,26.6,29.1,50,29.1,62.7c0,28.8-27,52.5-59.3,54.8v-37c8.6-0.2,16.9-2.1,24.4-5.9c0.6-0.3,1-0.8,1.2-1.4s0.2-1.3-0.2-1.9
		l-3.3-6.5c-0.6-1.1-2-1.6-3.2-1.1c-5.9,2.9-12.5,4.4-19,4.5v-31.8c6.5-0.1,12.7-1.2,18.7-3.4c0.6-0.2,1.1-0.7,1.4-1.3
		c0.3-0.6,0.3-1.3,0-1.9l-2.6-6.8c-0.5-1.2-1.9-1.8-3.1-1.4c-4.6,1.7-10.2,2.5-14.5,2.6v-36.9c0-1.5-1.3-2.5-2.8-2.5h-8.7
		c-1.5,0-3.7,1-3.7,2.5V720c-2.1-0.1-6.4-0.5-9.6-1.3c-1.2-0.3-2.4,0.5-2.7,1.7l-1.8,7c-0.2,0.6,0,1.3,0.3,1.9
		c0.3,0.6,0.4,1,1.1,1.1c4.3,1.1,8.5,1.7,12.8,1.7v31.4c-4.3-0.1-9.4-1-14-2.6c-1.2-0.5-2.4,0.2-2.8,1.4l-2.5,6.8
		c-0.2,0.6-0.2,1.3,0.1,1.9c0.3,0.6,0.3,1.1,0.9,1.3c6,2.2,11.9,3.3,18.3,3.4v31.8c-6.5-0.2-12.2-1.7-18-4.5c-1.2-0.6-2.4-0.1-3,1
		l-3.2,6.5c-0.3,0.6-0.3,1.3-0.1,1.9s0.2,1.1,0.8,1.4c7.4,3.6,17.1,5.6,23.5,5.8v38.6c0,1.5,2.1,1.8,3.7,1.8h8.7
		c1.5,0,2.8-0.3,2.8-1.8v-8.8c19.4-1,36.5-8,50-19.7c15.1-13,23.3-30.5,23.3-49.2C6.1,758.5-14.8,725.2-27.2,707.4z"/>
</g>
</svg>
