<?xml version="1.0" encoding="utf-8"?>
<svg version="1.1" id="Layer_1" xmlns="http://www.w3.org/2000/svg" xmlns:xlink="http://www.w3.org/1999/xlink" x="0px" y="0px"
	 viewBox="0 180 769.9 200" enable-background="new 0 180 769.9 200" xml:space="preserve">
<g>
	<path d="M122.3,225.8c-8.2-11.7-16.7-22.5-24.1-30.7C87,182.7,81.6,180,77.3,180c-4.3,0-10.1,1.9-22.1,15.1
		c-7.4,8.2-15.9,19-24.1,31.1C21.7,240.2,0,274.8,0,298.1c0,14.4,5,28.4,14.8,40c8.9,10.9,21,19,35,23.7c1.9,0.8,4.3-0.4,4.7-2.3
		l2.3-7.8c0.8-1.9-0.4-3.9-2.3-4.7c-11.3-3.9-20.6-10.5-27.6-19c-7.4-8.9-11.3-19.4-11.3-30.3c0-12.8,10.5-36.1,27.6-61.8
		c7.4-10.9,15.1-21.4,22.1-29.1c6.2-7,10.1-9.7,12-10.9c5,3.5,18.6,17.9,34.2,41.2c17.9,26,28,48.5,28,61
		c0,27.6-25.2,50.1-56.3,52.4v-34.6c7.8-0.4,16.3-2.3,23.7-5.8c0.8-0.4,1.6-1.2,1.6-1.9c0.4-0.8,0.4-1.9,0-2.7l-3.1-6.2
		c-0.8-1.6-2.7-2.3-4.3-1.6c-5.4,2.7-9.7,3.9-17.5,4.3v-29.1c7.8-0.4,12-1.2,17.9-3.5c0.8-0.4,1.6-0.8,1.9-1.6
		c0.4-0.8,0.4-1.6,0-2.7l-2.7-6.6c-0.8-1.6-2.7-2.3-4.3-1.9c-4.3,1.6-9.3,2.3-13.2,2.3v-35.3c0-1.9-1.2-3.9-3.1-3.9h-8.5
		c-1.9,0-3.9,1.9-3.9,3.9v13.6c-3.9,0-5.8-0.4-8.5-1.2h-0.8c-1.6,0-2.7,0.8-3.1,2.3l-1.9,7c-0.4,0.8,0,1.9,0.4,2.3
		c0.4,0.8,1.2,1.2,1.9,1.6c3.9,1.2,8.2,1.6,12,1.6v29.1c-3.9,0-8.5-1.2-12.8-2.3c-1.6-0.4-3.5,0.4-3.9,1.9l-2.7,7
		c-0.4,0.8-0.4,1.6,0,2.7c0.4,0.8,0.8,1.6,1.6,1.6c5.8,1.9,14,3.1,17.9,3.5v29.1c-3.9-0.4-11.3-1.6-16.7-4.3c-1.6-0.8-3.5,0-4.3,1.6
		l-3.1,6.2c-0.4,0.8-0.4,1.6,0,2.7c0.4,0.8,0.8,1.6,1.6,1.9c7,3.5,15.1,5.4,22.9,5.8v36.9c0,1.9,1.9,5.8,3.9,5.8h8.5
		c1.9,0,3.1-3.9,3.1-5.8v-7.8c19.4-1.2,35.7-7.8,48.9-19.4c14.8-12.8,23.3-30.3,23.3-48.5C155,275.9,134.8,243.3,122.3,225.8z"/>
	<g>
		<path d="M189.1,233.2c0-1.2,0.8-1.9,1.9-1.9h42.3c29.5,0,40,16.7,40,33.4c0,16.3-10.5,33.8-40,33.8h-23.7
			c-1.2,0-1.9,0.8-1.9,1.9v37.3c0,1.2-0.8,1.9-1.9,1.9h-14.4c-1.2,0-1.9-0.8-1.9-1.9V233.2H189.1z M233.4,283.3
			c15.1,0,21.4-8.5,21.4-18.6c0-10.1-6.2-18.3-21-18.3h-23.7c-1.2,0-1.9,0.8-1.9,1.9V281c0,1.2,0.8,1.9,1.9,1.9h23.3V283.3z"/>
		<path d="M321.2,291.5c1.2,0,1.9-0.8,1.9-1.9v-7.4c0-7-3.9-11.7-13.2-11.7c-7.4,0-15.9,3.1-24.1,7
			c-1.2,0.4-2.3,0-2.7-0.8l-5-10.5c-0.4-1.2,0-2.3,1.2-2.7c9.7-4.3,21.4-7.8,31.5-7.8c21.7,0,30.7,10.9,30.7,26.8v37.3
			c0,4.7,2.3,7,5.8,7.4c1.2,0,1.6,1.2,1.6,1.9v8.9c0,1.2-0.8,1.9-1.9,1.9c-10.9-0.4-16.3-2.3-20.2-7.8c-0.8-1.2-2.3-1.2-3.1-0.4
			c-6.2,5.8-14,9.3-23.7,9.3c-14.8,0-24.9-8.9-24.9-21.7C275.4,300.8,295.2,293,321.2,291.5z M304.5,328c7.8,0,14-3.1,18.3-7.4
			c0.4-0.4,0.8-0.8,0.8-1.6v-14.8c0-1.2-1.2-1.9-2.3-1.9c-13.6,0.8-28,3.9-28,15.9C293.2,324.5,297.9,328,304.5,328z"/>
		<path d="M360,257.7h12.4c1.2,0,1.9,0.8,1.9,1.9l0.8,5.8c0,1.9,2.7,2.3,3.5,1.2c5.4-7.4,12.4-10.9,21-10.9
			c3.5,0,6.6,0.4,9.3,1.6c1.2,0.4,1.6,1.2,1.6,2.3l-2.3,12.4c-0.4,1.2-1.6,1.9-2.7,1.6c-2.3-0.8-5-1.2-8.2-1.2
			c-8.9,0-15.1,5.4-20.6,15.9c0,0.4-0.4,0.8-0.4,1.2v48.9c0,1.2-0.8,1.9-1.9,1.9h-14c-1.2,0-1.9-0.8-1.9-1.9v-78.8
			C358.1,258.4,358.8,257.7,360,257.7z"/>
		<path d="M421,223.5h14c1.2,0,1.9,0.8,1.9,1.9v13.2c0,1.2-0.8,1.9-1.9,1.9h-14c-1.2,0-1.9-0.8-1.9-1.9v-13.2
			C418.7,224.7,419.8,223.5,421,223.5z M421,258.4h14c1.2,0,1.9,0.8,1.9,1.9v77.3c0,1.2-0.8,1.9-1.9,1.9h-14c-1.2,0-1.9-0.8-1.9-1.9
			v-77.3C418.7,259.2,419.8,258.4,421,258.4z"/>
		<path d="M452.8,321.4c0.4-0.8,1.9-1.2,2.7-0.8c7.4,3.9,15.5,6.6,24.1,6.6s14.8-3.1,14.8-10.1
			c0-16.3-46.2-6.2-46.2-36.9c0-15.9,14-24.9,31.1-24.9c8.5,0,17.9,1.9,27.6,6.2c1.2,0.4,1.6,1.9,1.2,2.7l-5,9.7
			c-0.4,1.2-1.6,1.6-2.7,0.8c-7-3.1-15.1-5-21-5c-7.8,0-13.6,3.1-13.6,9.7c0,16.3,46.2,5.4,46.2,36.9c0,16.3-13.6,25.2-32.2,25.2
			c-11.7,0-21.7-2.7-31.5-8.2c-1.2-0.4-1.6-1.9-0.8-2.7L452.8,321.4z"/>
		<path d="M524.7,222.7h14c1.2,0,1.9,0.8,1.9,1.9v113.4c0,1.2-0.8,1.9-1.9,1.9h-14c-1.2,0-1.9-0.8-1.9-1.9V224.7
			C522.4,223.5,523.5,222.7,524.7,222.7z"/>
		<path d="M591.5,255.7c23.7,0,35,15.9,35,37.7c0,1.9,0,4.3-0.4,6.2c0,1.2-1.2,1.9-1.9,1.9h-52.4
			c-1.2,0-2.3,1.2-1.9,2.3c1.6,15.5,9.3,23.3,23.3,23.3c7.8,0,15.1-2.7,21.4-6.6c0.8-0.4,2.3-0.4,2.7,0.8l5.8,8.5
			c0.8,0.8,0.4,2.3-0.8,2.7c-8.9,5.8-19.4,8.9-30.3,8.9c-24.9,0-40.8-16.3-40.8-43.9C551.1,272,568.6,255.7,591.5,255.7z
			 M572.8,289.9h34.6c1.2,0,1.9-1.2,1.9-2.3c-0.4-10.5-5.4-18.6-17.1-18.6c-10.5,0-18.3,6.6-21.4,18.3
			C570.5,288.7,571.3,289.9,572.8,289.9z"/>
		<path d="M679.3,291.5c1.2,0,1.9-0.8,1.9-1.9v-7.4c0-7-3.9-11.7-13.2-11.7c-7.4,0-15.9,3.1-24.1,7
			c-1.2,0.4-2.3,0-2.7-0.8l-5-10.5c-0.4-1.2,0-2.3,1.2-2.7c9.7-4.3,21.4-7.8,31.5-7.8c21.7,0,30.7,10.9,30.7,26.8v37.3
			c0,4.7,2.3,7,5.8,7.4c1.2,0,1.6,1.2,1.6,1.9v8.9c0,1.2-0.8,1.9-1.9,1.9c-10.9-0.4-16.3-2.3-20.2-7.8c-0.8-1.2-2.3-1.2-3.1-0.4
			c-6.2,5.8-14,9.3-23.7,9.3c-14.8,0-24.9-8.9-24.9-21.7C633.4,300.8,653.2,293,679.3,291.5z M662.6,328c7.8,0,14-3.1,18.3-7.4
			c0.4-0.4,0.8-0.8,0.8-1.6v-14.8c0-1.2-1.2-1.9-2.3-1.9c-13.6,0.8-28,3.9-28,15.9C651.3,324.5,655.9,328,662.6,328z"/>
		<path d="M719.6,272h-9.7c-1.2,0-1.9-0.8-1.9-1.9v-9.3c0-1.2,0.8-1.9,1.9-1.9h9.7c1.2,0,1.9-0.8,1.9-1.9v-3.1
			c0-23.3,13.6-32.2,32.6-32.2c5,0,10.1,1.2,14.4,2.3c1.2,0.4,1.6,1.6,1.2,2.7l-3.1,9.3c-0.4,1.2-1.6,1.6-2.3,1.2
			c-2.7-0.8-5.8-1.2-9.7-1.2c-10.5,0-15.1,5.8-15.1,17.9v3.1c0,1.2,0.8,1.9,1.9,1.9h17.9c1.2,0,1.9,0.8,1.9,1.9v9.3
			c0,1.2-0.8,1.9-1.9,1.9h-17.9c-1.2,0-1.9,0.8-1.9,1.9v63.7c0,1.2-0.8,1.9-1.9,1.9h-14c-1.2,0-1.9-0.8-1.9-1.9v-63.3
			C721.6,273.2,720.8,272,719.6,272z"/>
	</g>
</g>
</svg>
