<?xml version="1.0" encoding="utf-8"?>
<svg version="1.1" id="Layer_1" xmlns="http://www.w3.org/2000/svg" xmlns:xlink="http://www.w3.org/1999/xlink" x="0px" y="0px"
	 viewBox="284.9 180 155.7 200" enable-background="new 284.9 180 155.7 200" xml:space="preserve">
<g>
	<path d="M407.3,225.8c-8.2-11.7-16.7-22.5-24.1-30.7c-11.3-12.4-16.7-15.1-21-15.1c-4.3,0-10.1,1.9-22.1,15.1
		c-7.4,8.2-15.9,19-24.1,31.1c-9.3,14-31.1,48.5-31.1,71.8c0,14.4,5,28.4,14.8,40c8.9,10.9,21,19,35,23.7c1.9,0.8,4.3-0.4,4.7-2.3
		l2.3-7.8c0.8-1.9-0.4-3.9-2.3-4.7c-11.3-3.9-20.6-10.5-27.6-19c-7.4-8.9-11.3-19.4-11.3-30.3c0-12.8,10.5-36.1,27.6-61.8
		c7.4-10.9,15.1-21.4,22.1-29.1c6.2-7,10.1-9.7,12-10.9c5,3.5,18.6,17.9,34.2,41.2c17.9,26,28,48.5,28,61
		c0,27.6-25.2,50.1-56.3,52.4v-34.6c7.8-0.4,16.3-2.3,23.7-5.8c0.8-0.4,1.6-1.2,1.6-1.9c0.4-0.8,0.4-1.9,0-2.7l-3.1-6.2
		c-0.8-1.6-2.7-2.3-4.3-1.6c-5.4,2.7-9.7,3.9-17.5,4.3v-29.1c7.8-0.4,12-1.2,17.9-3.5c0.8-0.4,1.6-0.8,1.9-1.6s0.4-1.6,0-2.7
		l-2.7-6.6c-0.8-1.6-2.7-2.3-4.3-1.9c-4.3,1.6-9.3,2.3-13.2,2.3v-35.3c0-1.9-1.2-3.9-3.1-3.9h-8.5c-1.9,0-3.9,1.9-3.9,3.9v13.6
		c-3.9,0-5.8-0.4-8.5-1.2h-0.8c-1.6,0-2.7,0.8-3.1,2.3l-1.9,7c-0.4,0.8,0,1.9,0.4,2.3c0.4,0.8,1.2,1.2,1.9,1.6
		c3.9,1.2,8.2,1.6,12,1.6v29.1c-3.9,0-8.5-1.2-12.8-2.3c-1.6-0.4-3.5,0.4-3.9,1.9l-2.7,7c-0.4,0.8-0.4,1.6,0,2.7
		c0.4,0.8,0.8,1.6,1.6,1.6c5.8,1.9,14,3.1,17.9,3.5v29.1c-3.9-0.4-11.3-1.6-16.7-4.3c-1.6-0.8-3.5,0-4.3,1.6l-3.1,6.2
		c-0.4,0.8-0.4,1.6,0,2.7c0.4,0.8,0.8,1.6,1.6,1.9c7,3.5,15.1,5.4,22.9,5.8v36.9c0,1.9,1.9,5.8,3.9,5.8h8.5c1.9,0,3.1-3.9,3.1-5.8
		v-7.8c19.4-1.2,35.7-7.8,48.9-19.4c14.8-12.8,23.3-30.3,23.3-48.5C439.9,275.9,419.7,243.3,407.3,225.8z"/>
</g>
</svg>
