<?xml version="1.0" encoding="utf-8"?>
<!DOCTYPE svg PUBLIC "-//W3C//DTD SVG 1.1//EN" "http://www.w3.org/Graphics/SVG/1.1/DTD/svg11.dtd">
<svg version="1.1" id="Layer_1" xmlns="http://www.w3.org/2000/svg" xmlns:xlink="http://www.w3.org/1999/xlink" x="0px" y="0px"
	 viewBox="0 0 86.4 100" enable-background="new 0 0 86.4 100" xml:space="preserve">
	<g>
		<path d="M42.4,53.2L42.4,53.2c0.1,0.3,0.4,0.5,0.7,0.5c0.4,0,0.7-0.2,0.8-0.6l13.3-28.1c0.1-0.1,0.1-0.3,0.1-0.4
			c0-0.5-0.4-0.8-0.8-0.8c0,0-0.1,0-0.1,0h-5.8c0,0-0.1,0-0.1,0c-0.4,0-0.7,0.2-0.8,0.5v0l-6.6,15.6l-6.6-15.6l0,0
			c-0.1-0.3-0.4-0.5-0.7-0.5l0,0h-6.1l0,0h0c-0.5,0-0.8,0.4-0.8,0.8c0,0.1,0,0.2,0.1,0.4L42.4,53.2C42.4,53.2,42.4,53.2,42.4,53.2z"
			/>
		<path d="M71.1,48.1c0.2-0.1,0.3-0.4,0.3-0.6l-3.2-8.5c-0.6,1-1.4,2-2.3,2.9c-0.9,1-1.7,1.9-2.1,2.8
			c-0.4,1-0.5,2.3-0.6,3.7c-0.1,1.2-0.1,2.4-0.4,3.5L71.1,48.1z"/>
		<path d="M63.7,27.6c0.4,0.9,1.2,1.8,2.1,2.8c0.8,0.9,1.7,1.9,2.3,2.9l3.2-8.5c0.1-0.2,0-0.5-0.3-0.6l-8.3-3.8
			c0.3,1.1,0.4,2.3,0.4,3.5C63.3,25.3,63.3,26.6,63.7,27.6z"/>
		<path d="M55.1,64l3.8-8.3c-1.1,0.3-2.3,0.4-3.5,0.4c-1.3,0.1-2.7,0.2-3.7,0.6c-0.9,0.4-1.8,1.2-2.8,2.1
			c-0.9,0.8-1.9,1.7-2.9,2.3l8.5,3.2C54.7,64.4,55,64.3,55.1,64z"/>
		<path d="M31,56.1c-1.2-0.1-2.4-0.1-3.5-0.4l3.8,8.3c0.1,0.2,0.4,0.3,0.6,0.3l8.5-3.2c-1-0.6-2-1.4-2.9-2.3
			c-1-0.9-1.9-1.7-2.8-2.1C33.7,56.3,32.3,56.2,31,56.1z"/>
		<path d="M22.6,44.7c-0.4-0.9-1.2-1.8-2.1-2.8c-0.8-0.9-1.7-1.9-2.3-2.9L15,47.4c-0.1,0.2,0,0.5,0.3,0.6l8.3,3.8
			c-0.3-1.1-0.4-2.3-0.4-3.5C23.1,47,23,45.6,22.6,44.7z"/>
		<path d="M48.9,13.5c1,0.9,1.9,1.7,2.8,2.1c1,0.4,2.3,0.5,3.7,0.6c1.2,0.1,2.4,0.1,3.5,0.4l-3.8-8.3
			C55,8,54.7,7.9,54.5,8l-8.5,3.2C47,11.8,47.9,12.6,48.9,13.5z"/>
		<path d="M31,16.1c1.3-0.1,2.7-0.2,3.7-0.6c0.9-0.4,1.8-1.2,2.8-2.1c0.9-0.8,1.9-1.7,2.9-2.3L31.9,8
			c-0.2-0.1-0.5,0-0.6,0.3l-3.8,8.3C28.6,16.3,29.8,16.2,31,16.1z"/>
		<path d="M15.3,24.2c-0.2,0.1-0.3,0.4-0.3,0.6l3.2,8.5c0.6-1,1.4-2,2.3-2.9c0.9-1,1.7-1.9,2.1-2.8
			c0.4-1,0.5-2.3,0.6-3.7c0.1-1.2,0.1-2.4,0.4-3.5L15.3,24.2z"/>
		<path d="M41.7,98.8l-6.7-8.2l6.3-7.3l0,0c0.1-0.1,0.1-0.2,0.1-0.3c0-0.3-0.2-0.5-0.5-0.5h-3.4h0h0
			c-0.2,0-0.3,0.1-0.4,0.2l0,0L31.3,90V83c0,0,0,0,0,0c0-0.3-0.2-0.5-0.5-0.5h-3l0,0l0,0c-0.3,0-0.5,0.2-0.5,0.5c0,0,0,0,0,0l0,0
			v16.1c0,0.3,0.2,0.5,0.5,0.5h0h3c0.3,0,0.5-0.2,0.5-0.5c0,0,0,0,0,0v-7.5l6.1,7.8c0.1,0.1,0.2,0.2,0.4,0.2h0h3.5
			c0.3,0,0.5-0.2,0.5-0.5C41.8,99,41.7,98.9,41.7,98.8L41.7,98.8z"/>
		<path d="M15.7,82.6C15.7,82.6,15.7,82.6,15.7,82.6l-3.3,0c0,0,0,0,0,0c-0.2,0-0.4,0.1-0.4,0.3l-3.8,8.9l-3.8-8.9
			l0,0c-0.1-0.2-0.2-0.3-0.4-0.3l0,0H0.5l0,0h0C0.2,82.6,0,82.8,0,83c0,0.1,0,0.1,0,0.2l7.6,16.1c0,0,0,0,0,0l0,0
			c0.1,0.2,0.2,0.3,0.4,0.3c0.2,0,0.4-0.1,0.4-0.3l7.6-16c0-0.1,0.1-0.2,0.1-0.3C16.2,82.8,16,82.6,15.7,82.6z"/>
		<path d="M22.5,82.6h-3l0,0l0,0c-0.3,0-0.5,0.2-0.5,0.5v16.1v0c0,0,0,0,0,0c0,0.3,0.2,0.5,0.5,0.5h3v0
			c0.3,0,0.5-0.2,0.5-0.5l0,0V83C23,82.8,22.8,82.6,22.5,82.6z"/>
		<path d="M48.3,82.6L48.3,82.6L48.3,82.6h-3c-0.3,0-0.5,0.2-0.5,0.5v16.1l0,0c0,0,0,0,0,0c0,0.3,0.2,0.5,0.5,0.5h3
			h0c0.3,0,0.5-0.2,0.5-0.5V83.1v0c0,0,0,0,0,0C48.8,82.8,48.6,82.6,48.3,82.6z"/>
		<path d="M67.2,82.6h-3l0,0l0,0c-0.3,0-0.5,0.2-0.5,0.5c0,0,0,0,0,0v8.4l-9.9-8.9c-0.1-0.1-0.2-0.2-0.4-0.2
			c-0.3,0-0.5,0.2-0.5,0.5v16.3l0,0c0,0.3,0.2,0.5,0.5,0.5l0,0l0,0h3c0.3,0,0.5-0.2,0.5-0.5v0c0,0,0,0,0,0c0,0,0,0,0,0v-8.4l9.9,8.9
			l0,0c0.1,0.1,0.2,0.1,0.3,0.1c0.3,0,0.5-0.2,0.5-0.5c0,0,0,0,0,0V83c0,0,0,0,0,0C67.7,82.8,67.5,82.6,67.2,82.6z"/>
		<path d="M86.4,90.5c0-0.3-0.2-0.5-0.5-0.5h-6.2h0c-0.3,0-0.5,0.2-0.5,0.5c0,0,0,0,0,0v2.4c0,0,0,0,0,0
			c0,0.3,0.2,0.5,0.5,0.5l0,0h2.9v2.5c-0.6,0.3-1.3,0.5-2.5,0.5c-2.8,0-5-2-5-5.3c0-3,1.8-5.1,5.2-5.1c1.2,0,2.3,0.3,3.4,0.8
			c0,0,0,0,0,0c0.1,0,0.1,0,0.2,0c0.2,0,0.3-0.1,0.4-0.2l0,0l1.2-2.3v0c0-0.1,0.1-0.1,0.1-0.2c0-0.2-0.1-0.4-0.3-0.4
			c-1.6-0.8-3.2-1.2-5.3-1.2c-5.2,0-9.2,3.6-9.2,8.8c0,5.2,4,8.8,9,8.8c2.5,0,4.4-0.6,6.2-1.6c0,0,0,0,0,0c0.1-0.1,0.2-0.2,0.2-0.4
			V90.5L86.4,90.5C86.4,90.5,86.4,90.5,86.4,90.5z"/>
		<path d="M69.6,36.7l3.8,9.6c0.1,0.2,0.3,0.4,0.6,0.4c0.3,0,0.5-0.2,0.6-0.4l4.6-9.9c0.1-0.2,0.1-0.4,0-0.5L74.6,26
			c-0.1-0.3-0.3-0.4-0.6-0.4c-0.3,0-0.5,0.2-0.6,0.5h0l-3.8,9.6C69.4,35.9,69.4,36.3,69.6,36.7z"/>
		<path d="M57.4,7.7l4,9.4c0.2,0.4,0.4,0.7,0.8,0.8l9.4,4.1C71.8,22,71.9,22,72,22c0.4,0,0.7-0.3,0.7-0.7
			c0,0,0-0.1,0-0.1l0,0l0,0c0,0,0-0.1,0-0.1l-3.7-10.3c-0.1-0.2-0.2-0.3-0.4-0.4L58.3,6.7c-0.1-0.1-0.2-0.1-0.3-0.1
			c-0.4,0-0.7,0.3-0.7,0.7C57.3,7.5,57.3,7.6,57.4,7.7L57.4,7.7z"/>
		<path d="M33.1,6l9.5,3.8c0.4,0.1,0.8,0.1,1.2,0L53.3,6c0.3-0.1,0.5-0.3,0.5-0.6c0-0.3-0.2-0.5-0.4-0.6l-9.9-4.6
			c-0.2-0.1-0.4-0.1-0.5,0L33,4.7c-0.3,0.1-0.4,0.3-0.4,0.6C32.6,5.6,32.8,5.9,33.1,6z"/>
		<path d="M72.6,50.9c0-0.4-0.3-0.7-0.7-0.7c-0.1,0-0.2,0-0.3,0.1l0,0l-9.4,4.1c-0.4,0.2-0.7,0.4-0.8,0.8l-4.1,9.4
			l0,0c0,0.1-0.1,0.2-0.1,0.3c0,0.4,0.3,0.7,0.7,0.7c0.1,0,0.2,0,0.2,0l0,0l10.3-3.7c0.2-0.1,0.3-0.2,0.4-0.4l3.7-10.2
			C72.6,51.1,72.6,51,72.6,50.9z"/>
		<path d="M11.7,46.2c0,0.1,0.1,0.2,0.2,0.3c0.3,0.3,0.7,0.3,0.9,0c0.1-0.1,0.1-0.2,0.2-0.3h0l3.8-9.6
			c0.1-0.4,0.1-0.8,0-1.2L12.9,26h0c0-0.1-0.1-0.2-0.2-0.2c-0.3-0.3-0.7-0.3-0.9,0c-0.1,0.1-0.1,0.1-0.1,0.2l0,0l-4.6,9.9
			C7,36,7,36.2,7.1,36.4L11.7,46.2z"/>
		<path d="M28.9,65.4c0.2-0.2,0.2-0.5,0.1-0.8l0,0l-4.1-9.4c-0.2-0.4-0.5-0.7-0.8-0.8l-9.5-4.1
			c-0.2-0.1-0.5,0-0.7,0.1c-0.2,0.2-0.2,0.5-0.1,0.7l3.7,10.3c0.1,0.2,0.2,0.3,0.4,0.4l10.3,3.7C28.4,65.6,28.7,65.6,28.9,65.4z"/>
		<path d="M53.7,67.1c0.1-0.2,0.1-0.5-0.1-0.7c-0.1-0.1-0.2-0.2-0.3-0.2l0,0l-9.5-3.8c-0.4-0.1-0.8-0.1-1.2,0
			l-9.5,3.8c-0.1,0-0.2,0.1-0.3,0.2c-0.1,0.1-0.2,0.2-0.2,0.4c0,0,0,0.1,0,0.1c0,0.3,0.2,0.5,0.4,0.6l9.9,4.6c0.2,0.1,0.4,0.1,0.5,0
			l9.9-4.6C53.5,67.5,53.7,67.3,53.7,67.1z"/>
		<path d="M14.6,21.9L14.6,21.9l9.4-4.1c0.4-0.2,0.7-0.5,0.8-0.8l4.1-9.4l0,0C29,7.3,29,7,28.8,6.8
			c-0.2-0.2-0.5-0.2-0.7-0.1l-10.3,3.7c-0.2,0.1-0.3,0.2-0.4,0.4l-3.7,10.3c-0.1,0.2-0.1,0.5,0.1,0.7C14,22,14.3,22,14.6,21.9z"/>
	</g>
	<g>
		<path d="M42.4,53.2L42.4,53.2c0.1,0.3,0.4,0.5,0.7,0.5c0.4,0,0.7-0.2,0.8-0.6l13.3-28.1c0.1-0.1,0.1-0.3,0.1-0.4
			c0-0.5-0.4-0.8-0.8-0.8c0,0-0.1,0-0.1,0h-5.8c0,0-0.1,0-0.1,0c-0.4,0-0.7,0.2-0.8,0.5v0l-6.6,15.6l-6.6-15.6l0,0
			c-0.1-0.3-0.4-0.5-0.7-0.5l0,0h-6.1l0,0h0c-0.5,0-0.8,0.4-0.8,0.8c0,0.1,0,0.2,0.1,0.4L42.4,53.2C42.4,53.2,42.4,53.2,42.4,53.2z"
			/>
		<path d="M71.1,48.1c0.2-0.1,0.3-0.4,0.3-0.6l-3.2-8.5c-0.6,1-1.4,2-2.3,2.9c-0.9,1-1.7,1.9-2.1,2.8
			c-0.4,1-0.5,2.3-0.6,3.7c-0.1,1.2-0.1,2.4-0.4,3.5L71.1,48.1z"/>
		<path d="M63.7,27.6c0.4,0.9,1.2,1.8,2.1,2.8c0.8,0.9,1.7,1.9,2.3,2.9l3.2-8.5c0.1-0.2,0-0.5-0.3-0.6l-8.3-3.8
			c0.3,1.1,0.4,2.3,0.4,3.5C63.3,25.3,63.3,26.6,63.7,27.6z"/>
		<path d="M55.1,64l3.8-8.3c-1.1,0.3-2.3,0.4-3.5,0.4c-1.3,0.1-2.7,0.2-3.7,0.6c-0.9,0.4-1.8,1.2-2.8,2.1
			c-0.9,0.8-1.9,1.7-2.9,2.3l8.5,3.2C54.7,64.4,55,64.3,55.1,64z"/>
		<path d="M31,56.1c-1.2-0.1-2.4-0.1-3.5-0.4l3.8,8.3c0.1,0.2,0.4,0.3,0.6,0.3l8.5-3.2c-1-0.6-2-1.4-2.9-2.3
			c-1-0.9-1.9-1.7-2.8-2.1C33.7,56.3,32.3,56.2,31,56.1z"/>
		<path d="M22.6,44.7c-0.4-0.9-1.2-1.8-2.1-2.8c-0.8-0.9-1.7-1.9-2.3-2.9L15,47.4c-0.1,0.2,0,0.5,0.3,0.6l8.3,3.8
			c-0.3-1.1-0.4-2.3-0.4-3.5C23.1,47,23,45.6,22.6,44.7z"/>
		<path d="M48.9,13.5c1,0.9,1.9,1.7,2.8,2.1c1,0.4,2.3,0.5,3.7,0.6c1.2,0.1,2.4,0.1,3.5,0.4l-3.8-8.3
			C55,8,54.7,7.9,54.5,8l-8.5,3.2C47,11.8,47.9,12.6,48.9,13.5z"/>
		<path d="M31,16.1c1.3-0.1,2.7-0.2,3.7-0.6c0.9-0.4,1.8-1.2,2.8-2.1c0.9-0.8,1.9-1.7,2.9-2.3L31.9,8
			c-0.2-0.1-0.5,0-0.6,0.3l-3.8,8.3C28.6,16.3,29.8,16.2,31,16.1z"/>
		<path d="M15.3,24.2c-0.2,0.1-0.3,0.4-0.3,0.6l3.2,8.5c0.6-1,1.4-2,2.3-2.9c0.9-1,1.7-1.9,2.1-2.8
			c0.4-1,0.5-2.3,0.6-3.7c0.1-1.2,0.1-2.4,0.4-3.5L15.3,24.2z"/>
		<path d="M41.7,98.8l-6.7-8.2l6.3-7.3l0,0c0.1-0.1,0.1-0.2,0.1-0.3c0-0.3-0.2-0.5-0.5-0.5h-3.4h0h0
			c-0.2,0-0.3,0.1-0.4,0.2l0,0L31.3,90V83c0,0,0,0,0,0c0-0.3-0.2-0.5-0.5-0.5h-3l0,0l0,0c-0.3,0-0.5,0.2-0.5,0.5c0,0,0,0,0,0l0,0
			v16.1c0,0.3,0.2,0.5,0.5,0.5h0h3c0.3,0,0.5-0.2,0.5-0.5c0,0,0,0,0,0v-7.5l6.1,7.8c0.1,0.1,0.2,0.2,0.4,0.2h0h3.5
			c0.3,0,0.5-0.2,0.5-0.5C41.8,99,41.7,98.9,41.7,98.8L41.7,98.8z"/>
		<path d="M15.7,82.6C15.7,82.6,15.7,82.6,15.7,82.6l-3.3,0c0,0,0,0,0,0c-0.2,0-0.4,0.1-0.4,0.3l-3.8,8.9l-3.8-8.9
			l0,0c-0.1-0.2-0.2-0.3-0.4-0.3l0,0H0.5l0,0h0C0.2,82.6,0,82.8,0,83c0,0.1,0,0.1,0,0.2l7.6,16.1c0,0,0,0,0,0l0,0
			c0.1,0.2,0.2,0.3,0.4,0.3c0.2,0,0.4-0.1,0.4-0.3l7.6-16c0-0.1,0.1-0.2,0.1-0.3C16.2,82.8,16,82.6,15.7,82.6z"/>
		<path d="M22.5,82.6h-3l0,0l0,0c-0.3,0-0.5,0.2-0.5,0.5v16.1v0c0,0,0,0,0,0c0,0.3,0.2,0.5,0.5,0.5h3v0
			c0.3,0,0.5-0.2,0.5-0.5l0,0V83C23,82.8,22.8,82.6,22.5,82.6z"/>
		<path d="M48.3,82.6L48.3,82.6L48.3,82.6h-3c-0.3,0-0.5,0.2-0.5,0.5v16.1l0,0c0,0,0,0,0,0c0,0.3,0.2,0.5,0.5,0.5h3
			h0c0.3,0,0.5-0.2,0.5-0.5V83.1v0c0,0,0,0,0,0C48.8,82.8,48.6,82.6,48.3,82.6z"/>
		<path d="M67.2,82.6h-3l0,0l0,0c-0.3,0-0.5,0.2-0.5,0.5c0,0,0,0,0,0v8.4l-9.9-8.9c-0.1-0.1-0.2-0.2-0.4-0.2
			c-0.3,0-0.5,0.2-0.5,0.5v16.3l0,0c0,0.3,0.2,0.5,0.5,0.5l0,0l0,0h3c0.3,0,0.5-0.2,0.5-0.5v0c0,0,0,0,0,0c0,0,0,0,0,0v-8.4l9.9,8.9
			l0,0c0.1,0.1,0.2,0.1,0.3,0.1c0.3,0,0.5-0.2,0.5-0.5c0,0,0,0,0,0V83c0,0,0,0,0,0C67.7,82.8,67.5,82.6,67.2,82.6z"/>
		<path d="M86.4,90.5c0-0.3-0.2-0.5-0.5-0.5h-6.2h0c-0.3,0-0.5,0.2-0.5,0.5c0,0,0,0,0,0v2.4c0,0,0,0,0,0
			c0,0.3,0.2,0.5,0.5,0.5l0,0h2.9v2.5c-0.6,0.3-1.3,0.5-2.5,0.5c-2.8,0-5-2-5-5.3c0-3,1.8-5.1,5.2-5.1c1.2,0,2.3,0.3,3.4,0.8
			c0,0,0,0,0,0c0.1,0,0.1,0,0.2,0c0.2,0,0.3-0.1,0.4-0.2l0,0l1.2-2.3v0c0-0.1,0.1-0.1,0.1-0.2c0-0.2-0.1-0.4-0.3-0.4
			c-1.6-0.8-3.2-1.2-5.3-1.2c-5.2,0-9.2,3.6-9.2,8.8c0,5.2,4,8.8,9,8.8c2.5,0,4.4-0.6,6.2-1.6c0,0,0,0,0,0c0.1-0.1,0.2-0.2,0.2-0.4
			V90.5L86.4,90.5C86.4,90.5,86.4,90.5,86.4,90.5z"/>
		<path d="M69.6,36.7l3.8,9.6c0.1,0.2,0.3,0.4,0.6,0.4c0.3,0,0.5-0.2,0.6-0.4l4.6-9.9c0.1-0.2,0.1-0.4,0-0.5L74.6,26
			c-0.1-0.3-0.3-0.4-0.6-0.4c-0.3,0-0.5,0.2-0.6,0.5h0l-3.8,9.6C69.4,35.9,69.4,36.3,69.6,36.7z"/>
		<path d="M57.4,7.7l4,9.4c0.2,0.4,0.4,0.7,0.8,0.8l9.4,4.1C71.8,22,71.9,22,72,22c0.4,0,0.7-0.3,0.7-0.7
			c0,0,0-0.1,0-0.1l0,0l0,0c0,0,0-0.1,0-0.1l-3.7-10.3c-0.1-0.2-0.2-0.3-0.4-0.4L58.3,6.7c-0.1-0.1-0.2-0.1-0.3-0.1
			c-0.4,0-0.7,0.3-0.7,0.7C57.3,7.5,57.3,7.6,57.4,7.7L57.4,7.7z"/>
		<path d="M33.1,6l9.5,3.8c0.4,0.1,0.8,0.1,1.2,0L53.3,6c0.3-0.1,0.5-0.3,0.5-0.6c0-0.3-0.2-0.5-0.4-0.6l-9.9-4.6
			c-0.2-0.1-0.4-0.1-0.5,0L33,4.7c-0.3,0.1-0.4,0.3-0.4,0.6C32.6,5.6,32.8,5.9,33.1,6z"/>
		<path d="M72.6,50.9c0-0.4-0.3-0.7-0.7-0.7c-0.1,0-0.2,0-0.3,0.1l0,0l-9.4,4.1c-0.4,0.2-0.7,0.4-0.8,0.8l-4.1,9.4
			l0,0c0,0.1-0.1,0.2-0.1,0.3c0,0.4,0.3,0.7,0.7,0.7c0.1,0,0.2,0,0.2,0l0,0l10.3-3.7c0.2-0.1,0.3-0.2,0.4-0.4l3.7-10.2
			C72.6,51.1,72.6,51,72.6,50.9z"/>
		<path d="M11.7,46.2c0,0.1,0.1,0.2,0.2,0.3c0.3,0.3,0.7,0.3,0.9,0c0.1-0.1,0.1-0.2,0.2-0.3h0l3.8-9.6
			c0.1-0.4,0.1-0.8,0-1.2L12.9,26h0c0-0.1-0.1-0.2-0.2-0.2c-0.3-0.3-0.7-0.3-0.9,0c-0.1,0.1-0.1,0.1-0.1,0.2l0,0l-4.6,9.9
			C7,36,7,36.2,7.1,36.4L11.7,46.2z"/>
		<path d="M28.9,65.4c0.2-0.2,0.2-0.5,0.1-0.8l0,0l-4.1-9.4c-0.2-0.4-0.5-0.7-0.8-0.8l-9.5-4.1
			c-0.2-0.1-0.5,0-0.7,0.1c-0.2,0.2-0.2,0.5-0.1,0.7l3.7,10.3c0.1,0.2,0.2,0.3,0.4,0.4l10.3,3.7C28.4,65.6,28.7,65.6,28.9,65.4z"/>
		<path d="M53.7,67.1c0.1-0.2,0.1-0.5-0.1-0.7c-0.1-0.1-0.2-0.2-0.3-0.2l0,0l-9.5-3.8c-0.4-0.1-0.8-0.1-1.2,0
			l-9.5,3.8c-0.1,0-0.2,0.1-0.3,0.2c-0.1,0.1-0.2,0.2-0.2,0.4c0,0,0,0.1,0,0.1c0,0.3,0.2,0.5,0.4,0.6l9.9,4.6c0.2,0.1,0.4,0.1,0.5,0
			l9.9-4.6C53.5,67.5,53.7,67.3,53.7,67.1z"/>
		<path d="M14.6,21.9L14.6,21.9l9.4-4.1c0.4-0.2,0.7-0.5,0.8-0.8l4.1-9.4l0,0C29,7.3,29,7,28.8,6.8
			c-0.2-0.2-0.5-0.2-0.7-0.1l-10.3,3.7c-0.2,0.1-0.3,0.2-0.4,0.4l-3.7,10.3c-0.1,0.2-0.1,0.5,0.1,0.7C14,22,14.3,22,14.6,21.9z"/>
	</g>
</svg>
