<?xml version="1.0" encoding="utf-8"?>
<svg version="1.1" id="Layer_1" xmlns="http://www.w3.org/2000/svg" xmlns:xlink="http://www.w3.org/1999/xlink" x="0px" y="0px"
	 viewBox="-151 660.8 786.9 199.1" enable-background="new -151 660.8 786.9 199.1" xml:space="preserve">
<g>
	<path d="M-27.2,707.4c-8.2-11.8-16.9-22.9-24.7-31.4c-11.4-12.5-16.5-15.1-20.6-15.1c-3.8,0-9.7,1.7-22.2,15
		c-7.7,8.3-16.4,19.4-24.6,31.5c-9.5,14.1-31.8,49.6-31.8,73.1c0,14.6,5.1,28.5,14.7,40.3c8.9,10.9,21.1,19.2,35.2,24
		c1.5,0.5,3.2-0.4,3.7-1.9l2.6-8c0.5-1.5-0.3-3.1-1.8-3.6c-11.6-4-21.5-10.7-28.7-19.5c-7.6-9.2-11.6-20.1-11.6-31.4
		c0-13.1,10.8-37.5,28.3-63.6c7.5-11.3,15.6-21.9,22.9-29.9s11.2-10.8,12.9-11.7c5.2,3.6,19.6,18.9,35.7,42.5
		c18.2,26.6,29.1,50,29.1,62.7c0,28.8-27,52.5-59.3,54.8v-37c8.6-0.2,16.9-2.1,24.4-5.9c0.6-0.3,1-0.8,1.2-1.4s0.2-1.3-0.2-1.9
		l-3.3-6.5c-0.6-1.1-2-1.6-3.2-1.1c-5.9,2.9-12.5,4.4-19,4.5v-31.8c6.5-0.1,12.7-1.2,18.7-3.4c0.6-0.2,1.1-0.7,1.4-1.3
		c0.3-0.6,0.3-1.3,0-1.9l-2.6-6.8c-0.5-1.2-1.9-1.8-3.1-1.4c-4.6,1.7-10.2,2.5-14.5,2.6v-36.9c0-1.5-1.3-2.5-2.8-2.5h-8.7
		c-1.5,0-3.7,1-3.7,2.5V720c-2.1-0.1-6.4-0.5-9.6-1.3c-1.2-0.3-2.4,0.5-2.7,1.7l-1.8,7c-0.2,0.6,0,1.3,0.3,1.9
		c0.3,0.6,0.4,1,1.1,1.1c4.3,1.1,8.5,1.7,12.8,1.7v31.4c-4.3-0.1-9.4-1-14-2.6c-1.2-0.5-2.4,0.2-2.8,1.4l-2.5,6.8
		c-0.2,0.6-0.2,1.3,0.1,1.9c0.3,0.6,0.3,1.1,0.9,1.3c6,2.2,11.9,3.3,18.3,3.4v31.8c-6.5-0.2-12.2-1.7-18-4.5c-1.2-0.6-2.4-0.1-3,1
		l-3.2,6.5c-0.3,0.6-0.3,1.3-0.1,1.9s0.2,1.1,0.8,1.4c7.4,3.6,17.1,5.6,23.5,5.8v38.6c0,1.5,2.1,1.8,3.7,1.8h8.7
		c1.5,0,2.8-0.3,2.8-1.8v-8.8c19.4-1,36.5-8,50-19.7c15.1-13,23.3-30.5,23.3-49.2C6.1,758.5-14.8,725.2-27.2,707.4z"/>
	<g>
		<path d="M41.7,714.5c0-1.2,0.9-2.1,2.1-2.1h43.2c30.1,0,40.7,17.2,40.7,34.4c0,16.7-10.8,34.7-40.7,34.7H62.9
			c-1.2,0-2.1,0.9-2.1,2.1v38.1c0,1.2-0.9,2.1-2.1,2.1H43.9c-1.2,0-2.1-0.9-2.1-2.1V714.5z M86.9,765.9c15.4,0,21.8-8.9,21.8-18.9
			c0-10.2-6.4-18.6-21.6-18.6H62.9c-1.2,0-2.1,0.9-2.1,2.1v33.3c0,1.2,0.9,2.1,2.1,2.1H86.9z"/>
		<path d="M176.9,774.1c1.1-0.1,2-1,2-2.1v-7.4c0-7-4.1-11.8-13.7-11.8c-7.7,0-16.1,3.2-24.7,7.3
			c-1,0.5-2.3,0.1-2.8-1l-5-10.7c-0.5-1.1,0-2.3,1-2.8c9.8-4.5,21.7-8,32.1-8c22.4,0,31.5,11.3,31.5,27.3v38c0,4.7,2.3,7,6,7.5
			c1,0.1,1.8,1,1.8,2.1v9.3c0,1.2-0.9,2.1-2.1,2.1c-11.1-0.2-16.7-2.5-20.6-7.8c-0.7-1-2.2-1.2-3.1-0.3c-6.4,6-14.1,9.7-24.3,9.7
			c-14.9,0-25.3-9.1-25.3-22.3C129.7,783.5,150.1,775.8,176.9,774.1z M159.6,811.6c8.1,0,14.3-3.2,18.6-7.6c0.4-0.4,0.6-0.9,0.6-1.5
			v-14.9c0-1.2-1-2.2-2.2-2.1c-14,0.8-28.4,4-28.4,16.3C148.2,807.8,152.7,811.6,159.6,811.6z"/>
		<path d="M216.5,739.6h12.9c1.1,0,2,0.8,2.1,1.9l0.6,6.1c0.2,1.9,2.6,2.6,3.8,1.1c5.7-7.6,12.8-11.2,21.3-11.2
			c3.6,0,6.7,0.5,9.4,1.4c1,0.3,1.6,1.4,1.4,2.4l-2.5,12.9c-0.2,1.2-1.5,2-2.7,1.6c-2.5-0.8-5.1-1.2-8.4-1.2
			c-9.1,0-15.4,5.7-21.2,16.4c-0.2,0.3-0.2,0.7-0.2,1v49.8c0,1.2-0.9,2.1-2.1,2.1h-14.2c-1.2,0-2.1-0.9-2.1-2.1v-80
			C214.5,740.5,215.4,739.6,216.5,739.6z"/>
		<path d="M278.6,704.8h14.2c1.2,0,2.1,0.9,2.1,2.1v13.6c0,1.2-0.9,2.1-2.1,2.1h-14.2c-1.2,0-2.1-0.9-2.1-2.1v-13.6
			C276.5,705.7,277.4,704.8,278.6,704.8z M278.6,740.4h14.2c1.2,0,2.1,0.9,2.1,2.1v79.2c0,1.2-0.9,2.1-2.1,2.1h-14.2
			c-1.2,0-2.1-0.9-2.1-2.1v-79.2C276.5,741.4,277.4,740.4,278.6,740.4z"/>
		<path d="M311.5,804.8c0.6-1,1.8-1.3,2.8-0.8c7.4,4.1,15.8,6.9,24.5,6.9c8.9,0,15.3-3,15.3-10.2
			c0-16.8-47.4-6.4-47.4-37.7c0-16.4,14.5-25.4,32-25.4c8.6,0,18.3,1.9,28.3,6.2c1.1,0.5,1.6,1.8,1.1,2.9l-5,9.9
			c-0.5,1-1.7,1.4-2.7,0.9c-7.2-3.3-15.4-5.3-21.4-5.3c-8,0-13.8,3.2-13.8,10c0,16.6,47.1,5.4,47.1,37.5c0,16.8-13.8,25.8-33.1,25.8
			c-12,0-22.4-2.9-32.3-8.3c-1-0.6-1.4-1.9-0.8-2.9L311.5,804.8z"/>
		<path d="M384.7,703.7h14.2c1.2,0,2.1,0.9,2.1,2.1v115.9c0,1.2-0.9,2.1-2.1,2.1h-14.2c-1.2,0-2.1-0.9-2.1-2.1V705.8
			C382.6,704.6,383.5,703.7,384.7,703.7z"/>
		<path d="M453.1,737.6c24.3,0,35.9,16.4,35.9,38.5c0,1.9-0.2,4.5-0.4,6.6c-0.1,1.1-1,1.9-2.1,1.9h-53.8
			c-1.2,0-2.2,1.1-2.1,2.3c1.5,15.7,9.7,23.9,24,23.9c7.9,0,15.4-2.7,22-6.6c0.9-0.6,2.2-0.3,2.8,0.7l5.8,8.8c0.7,1,0.4,2.3-0.6,2.9
			c-9.3,5.9-19.9,9.3-31.1,9.3c-25.3,0-41.7-16.7-41.7-44.8C411.9,754.4,429.7,737.6,453.1,737.6z M433.9,772.5h35.2
			c1.2,0,2.1-1,2.1-2.2c-0.6-10.7-5.4-18.9-17.6-18.9c-10.5,0-18.7,6.8-21.7,18.5C431.5,771.3,432.5,772.5,433.9,772.5z"/>
		<path d="M543.1,774.1c1.1-0.1,2-1,2-2.1v-7.4c0-7-4.1-11.8-13.7-11.8c-7.7,0-16.1,3.2-24.7,7.3
			c-1,0.5-2.3,0.1-2.8-1l-5-10.7c-0.5-1.1,0-2.3,1-2.8c9.8-4.5,21.7-8,32.1-8c22.4,0,31.5,11.3,31.5,27.3v38c0,4.7,2.3,7,6,7.5
			c1,0.1,1.8,1,1.8,2.1v9.3c0,1.2-0.9,2.1-2.1,2.1c-11.1-0.2-16.7-2.5-20.6-7.8c-0.7-1-2.2-1.2-3.1-0.3c-6.4,6-14.1,9.7-24.3,9.7
			c-14.9,0-25.3-9.1-25.3-22.3C495.9,783.5,516.4,775.8,543.1,774.1z M525.8,811.6c8.1,0,14.3-3.2,18.6-7.6c0.4-0.4,0.6-0.9,0.6-1.5
			v-14.9c0-1.2-1-2.2-2.2-2.1c-14,0.8-28.5,4-28.5,16.3C514.3,807.8,519,811.6,525.8,811.6z"/>
		<path d="M584.1,754.4h-10c-1.2,0-2.1-0.9-2.1-2.1v-9.6c0-1.2,0.9-2.1,2.1-2.1h10c1.2,0,2.1-0.9,2.1-2.1v-3
			c0-24,14-32.9,33.6-32.9c5,0,10.4,1,14.7,2.4c1.1,0.3,1.7,1.6,1.4,2.7l-3.3,9.5c-0.4,1-1.4,1.6-2.5,1.4c-2.8-0.7-5.9-1.2-9.7-1.2
			c-10.7,0-15.6,6-15.6,18.1v3.1c0,1.2,0.9,2.1,2.1,2.1h18.2c1.2,0,2.1,0.9,2.1,2.1v9.6c0,1.2-0.9,2.1-2.1,2.1h-18.2
			c-1.2,0-2.1,0.9-2.1,2.1v65.2c0,1.2-0.9,2.1-2.1,2.1h-14.2c-1.2,0-2.1-0.9-2.1-2.1v-65.2C586.2,755.4,585.3,754.4,584.1,754.4z"/>
	</g>
</g>
</svg>
