<?xml version="1.0" encoding="utf-8"?>
<svg version="1.1" id="Layer_1" xmlns="http://www.w3.org/2000/svg" xmlns:xlink="http://www.w3.org/1999/xlink" x="0px" y="0px"
	 viewBox="0 0 200 200" enable-background="new 0 0 200 200" xml:space="preserve">
<g>
	<g>
		<path d="M2.2,77.5h119.1c1.1,0,2-0.9,2-2V64.3c0-1.1-0.9-2-2-2H2.2c-1.1,0-2,0.9-2,2v11.2
			C0.2,76.6,1.1,77.5,2.2,77.5z"/>
	</g>
	<g>
		<path d="M53,107.7h59.7c1.1,0,2-0.9,2-2V94.6c0-1.1-0.9-2-2-2H53c-1.1,0-2,0.9-2,2v11.2
			C51,106.8,51.9,107.7,53,107.7z"/>
	</g>
	<g>
		<path d="M102.7,138h18.6c1.1,0,2-0.9,2-2v-11.2c0-1.1-0.9-2-2-2h-18.6c-1.1,0-2,0.9-2,2V136
			C100.7,137.1,101.6,138,102.7,138z"/>
	</g>
	<g>
		<path d="M161.8,137.6c-20.8,0-37.6-16.9-37.6-37.6s16.9-37.6,37.6-37.6s37.6,16.9,37.6,37.6
			S182.6,137.6,161.8,137.6z M161.8,78.1c-12,0-21.8,9.8-21.8,21.8s9.8,21.8,21.8,21.8c12,0,21.8-9.8,21.8-21.8
			S173.9,78.1,161.8,78.1z"/>
	</g>
</g>
</svg>
