<?xml version="1.0" encoding="utf-8"?>
<!-- Generator: Adobe Illustrator 16.0.0, SVG Export Plug-In . SVG Version: 6.00 Build 0)  -->
<!DOCTYPE svg PUBLIC "-//W3C//DTD SVG 1.1//EN" "http://www.w3.org/Graphics/SVG/1.1/DTD/svg11.dtd">
<svg version="1.1" id="Layer_1" xmlns="http://www.w3.org/2000/svg" xmlns:xlink="http://www.w3.org/1999/xlink" x="0px" y="0px"
	 width="112.122px" height="138.288px" viewBox="0 0 112.122 138.288" enable-background="new 0 0 112.122 138.288"
	 xml:space="preserve">
<g>
	<path fill="#FFFFFF" d="M0,0v138.288h112.122V0H0z M82.535,51.734c0.076-0.231,0.291-0.399,0.547-0.399
		c0.248,0,0.459,0.156,0.539,0.376l4.072,8.668c0.072,0.152,0.072,0.328,0,0.48l-4.07,8.663c-0.08,0.225-0.291,0.383-0.541,0.383
		c-0.24,0-0.447-0.146-0.533-0.355l-3.344-8.427c-0.129-0.324-0.129-0.685,0-1.009l3.328-8.38L82.535,51.734z M73.6,71.297
		c0.068-1.154,0.139-2.345,0.496-3.204c0.33-0.801,1.068-1.62,1.848-2.488c0.721-0.804,1.461-1.629,1.98-2.548l2.828,7.477
		c0.08,0.213-0.018,0.451-0.225,0.545l-7.314,3.295C73.473,73.4,73.537,72.336,73.6,71.297z M73.213,46.867l7.314,3.296
		c0.207,0.094,0.305,0.332,0.225,0.544l-2.828,7.477c-0.52-0.92-1.26-1.745-1.98-2.55c-0.779-0.867-1.518-1.686-1.848-2.487
		c-0.357-0.859-0.428-2.051-0.496-3.204C73.537,48.905,73.473,47.842,73.213,46.867z M69,34.761c0.105,0,0.203,0.03,0.287,0.08
		l8.971,3.235c0.158,0.057,0.283,0.182,0.34,0.34l3.248,9.004c0.018,0.038,0.033,0.077,0.043,0.12l0.006,0.017l-0.002,0
		c0.008,0.038,0.012,0.075,0.012,0.114c0,0.319-0.26,0.579-0.578,0.579c-0.107,0-0.205-0.031-0.291-0.081l-8.254-3.561
		c-0.318-0.139-0.576-0.394-0.713-0.714l-3.547-8.219l0.004-0.005c-0.064-0.093-0.104-0.207-0.104-0.329
		C68.422,35.02,68.68,34.761,69,34.761z M66.51,36.146l3.297,7.314c-0.975-0.26-2.039-0.323-3.078-0.386
		c-1.152-0.07-2.344-0.14-3.203-0.497c-0.801-0.333-1.617-1.067-2.486-1.847c-0.805-0.722-1.631-1.463-2.549-1.984l7.477-2.825
		C66.178,35.841,66.416,35.94,66.51,36.146z M43.67,50.842c-0.044-0.095-0.072-0.199-0.072-0.309c0-0.398,0.32-0.72,0.719-0.72
		h0.003l0.009-0.012h5.345l0.019,0.013c0.293,0.006,0.543,0.188,0.649,0.445l0.002,0.002l5.776,13.697l5.775-13.689v-0.001
		c0.102-0.275,0.363-0.474,0.676-0.474c0.023,0,0.049,0.004,0.07,0.007h5.076c0.023-0.002,0.045-0.007,0.068-0.007
		c0.398,0,0.725,0.324,0.725,0.725c0,0.143-0.043,0.275-0.117,0.387L56.73,75.537c-0.097,0.283-0.361,0.49-0.68,0.49
		c-0.289,0-0.535-0.172-0.649-0.416l-0.005-0.01c-0.004-0.006-0.006-0.012-0.009-0.018L43.67,50.842z M53.617,82.492l-7.475,2.828
		c-0.214,0.08-0.451-0.02-0.545-0.227L42.3,77.779c0.975,0.26,2.039,0.326,3.075,0.387c1.154,0.068,2.346,0.139,3.205,0.496
		c0.802,0.332,1.619,1.068,2.488,1.848C51.873,81.23,52.697,81.973,53.617,82.492z M61.039,80.51
		c0.867-0.779,1.686-1.516,2.486-1.848c0.859-0.357,2.051-0.428,3.207-0.496c1.035-0.061,2.1-0.127,3.074-0.387l-3.297,7.314
		c-0.094,0.207-0.332,0.307-0.543,0.227l-7.477-2.828C59.408,81.973,60.234,81.23,61.039,80.51z M47.146,33.05l8.666-4.073
		c0.153-0.071,0.329-0.071,0.48,0l8.678,4.078c0.217,0.084,0.373,0.292,0.373,0.539c0,0.265-0.18,0.485-0.424,0.554l-8.361,3.32
		c-0.324,0.128-0.686,0.128-1.011,0l-8.343-3.313c-0.256-0.062-0.443-0.289-0.443-0.562C46.762,33.342,46.922,33.131,47.146,33.05z
		 M46.143,35.921l7.475,2.825c-0.919,0.521-1.744,1.262-2.549,1.984c-0.869,0.78-1.687,1.514-2.488,1.847
		c-0.858,0.357-2.051,0.427-3.205,0.497c-1.036,0.062-2.101,0.125-3.075,0.386l3.298-7.314
		C45.691,35.939,45.929,35.841,46.143,35.921z M30.199,47.407l3.238-9.025c0.057-0.158,0.181-0.283,0.339-0.341l9.005-3.265
		c0.213-0.098,0.475-0.062,0.649,0.114c0.183,0.181,0.216,0.453,0.106,0.67l0.001,0.002l-3.56,8.286
		c-0.139,0.321-0.393,0.576-0.713,0.715l-8.282,3.592l-0.001-0.002c-0.216,0.104-0.48,0.07-0.66-0.109
		C30.149,47.872,30.109,47.618,30.199,47.407z M38.508,49.943c-0.07,1.153-0.141,2.345-0.496,3.204
		c-0.334,0.801-1.069,1.62-1.847,2.487c-0.724,0.806-1.464,1.63-1.983,2.55l-2.828-7.477c-0.08-0.212,0.02-0.451,0.226-0.544
		l7.315-3.296C38.634,47.842,38.57,48.905,38.508,49.943z M38.895,74.373l-7.315-3.295c-0.206-0.094-0.306-0.332-0.226-0.545
		l2.828-7.477c0.52,0.919,1.26,1.744,1.983,2.55c0.777,0.867,1.513,1.686,1.845,2.487c0.357,0.859,0.428,2.05,0.498,3.204
		C38.57,72.334,38.634,73.4,38.895,74.373z M24.377,60.361l4.075-8.709l0.003,0c0.027-0.06,0.064-0.117,0.113-0.166
		c0.226-0.227,0.592-0.228,0.818-0.001c0.062,0.062,0.107,0.137,0.135,0.215h0.003l3.341,8.382c0.13,0.324,0.131,0.685,0.002,1.009
		l-3.312,8.387L29.55,69.48c-0.027,0.084-0.071,0.162-0.138,0.229c-0.226,0.227-0.592,0.227-0.818,0.002
		c-0.066-0.068-0.111-0.146-0.139-0.23l-4.078-8.639C24.306,60.69,24.306,60.513,24.377,60.361z M32.334,101.965l-6.653,14.055
		c-0.056,0.164-0.208,0.279-0.387,0.279c-0.166,0-0.305-0.098-0.372-0.236l-0.004-0.006c0-0.006-0.002-0.006-0.004-0.01
		L18.23,101.93c-0.027-0.053-0.043-0.113-0.043-0.176c0-0.227,0.184-0.41,0.41-0.41H18.6l0.003-0.008h3.052l0.011,0.01
		c0.167,0.002,0.31,0.104,0.369,0.252h0.002l3.296,7.816l3.293-7.809c0.06-0.16,0.209-0.271,0.387-0.271
		c0.013,0,0.027,0.002,0.039,0.002h2.898c0.012,0,0.025-0.002,0.037-0.002c0.229,0,0.415,0.186,0.415,0.41
		C32.401,101.828,32.377,101.902,32.334,101.965z M33.515,82.789l-3.265-8.996c-0.101-0.215-0.063-0.479,0.112-0.654
		c0.17-0.172,0.42-0.215,0.63-0.129l8.327,3.58c0.321,0.139,0.576,0.395,0.716,0.713l3.586,8.273v0.002
		c0.109,0.215,0.076,0.488-0.104,0.67c-0.176,0.174-0.436,0.213-0.648,0.117l-9.016-3.234
		C33.697,83.072,33.571,82.947,33.515,82.789z M38.367,115.887h-0.002c-0.003,0.223-0.182,0.402-0.402,0.406v0.002h-2.65
		c-0.228,0-0.413-0.186-0.413-0.414v-0.002v-0.002v-14.121c0-0.227,0.186-0.412,0.413-0.412l0.016,0.002l0.002-0.002h2.623
		c0.229,0,0.414,0.186,0.414,0.412V115.887z M54.398,116.295h-3.104h-0.004c-0.148,0-0.277-0.078-0.35-0.197l-5.333-6.799v6.574
		c0,0.004,0,0.006,0,0.008c0,0.229-0.185,0.414-0.411,0.414h-2.648h-0.002c-0.225-0.004-0.406-0.188-0.406-0.414v-14.119h0.002
		c0-0.002-0.002-0.004-0.002-0.006c0-0.227,0.186-0.412,0.414-0.412l0.008,0.002l0.002-0.002h2.633c0.227,0,0.411,0.186,0.411,0.412
		c0,0.002,0,0.006,0,0.008v6.088l5.108-6.34l0.005-0.004c0.073-0.1,0.192-0.164,0.329-0.164h0.004h0.001h2.991
		c0.23,0,0.414,0.186,0.414,0.412c0,0.104-0.038,0.199-0.103,0.27l0.002,0.002l-5.549,6.434l5.91,7.162v0.004
		c0.054,0.07,0.091,0.158,0.091,0.254C54.812,116.109,54.627,116.295,54.398,116.295z M55.812,92.264l-8.668-4.076
		c-0.221-0.08-0.378-0.289-0.378-0.537c0-0.045,0.005-0.086,0.014-0.127c0.015-0.125,0.067-0.246,0.162-0.342
		c0.075-0.074,0.167-0.123,0.263-0.148l8.348-3.332c0.324-0.129,0.686-0.129,1.01-0.002l8.326,3.289l0.002,0.006
		c0.109,0.02,0.217,0.074,0.303,0.16c0.176,0.172,0.215,0.428,0.123,0.639c-0.047,0.18-0.176,0.324-0.344,0.393l-8.68,4.078
		C56.142,92.334,55.966,92.334,55.812,92.264z M60.969,101.766v0.002v14.117c0,0.225-0.184,0.406-0.408,0.41h-0.002h-2.645
		c-0.227,0-0.412-0.186-0.412-0.414l0.002-0.002l-0.002-0.002v-14.121c0-0.227,0.186-0.412,0.412-0.412h2.637h0.006
		c0.229,0,0.412,0.186,0.412,0.412C60.969,101.762,60.969,101.762,60.969,101.766z M77.574,101.76v14.201c0,0,0,0.002,0,0.004
		c0,0.227-0.188,0.412-0.414,0.412c-0.104,0-0.197-0.039-0.271-0.104l-0.002,0.004l-8.676-7.795v7.393c0,0.002,0,0.004,0,0.006
		s0,0.004,0,0.006v0.002c-0.004,0.225-0.188,0.406-0.412,0.406h-2.633l-0.002-0.002l-0.008,0.002c-0.223,0-0.404-0.18-0.412-0.4
		v-0.002v-14.336c0-0.229,0.184-0.414,0.412-0.414c0.123,0,0.232,0.057,0.309,0.145l8.641,7.809v-7.334c0,0,0-0.004,0-0.006
		c0-0.227,0.184-0.412,0.412-0.412l0.012,0.002l0.002-0.002h2.629c0.227,0,0.414,0.186,0.414,0.414
		C77.574,101.758,77.574,101.758,77.574,101.76z M78.258,83.166l-9.045,3.26l-0.002-0.002c-0.062,0.021-0.127,0.037-0.197,0.037
		c-0.32,0-0.578-0.26-0.578-0.578c0-0.09,0.02-0.174,0.057-0.248l-0.002-0.002l3.578-8.285c0.137-0.32,0.393-0.574,0.713-0.713
		l8.281-3.576l0.004,0.004C81.145,73.023,81.23,73,81.324,73c0.32,0,0.58,0.26,0.58,0.578c0,0.094-0.025,0.182-0.064,0.26
		l-3.242,8.986C78.541,82.982,78.416,83.107,78.258,83.166z M93.934,108.314v6.473c0,0.15-0.082,0.281-0.203,0.352
		c-0.004,0.006-0.01,0.014-0.016,0.014c-1.59,0.883-3.287,1.389-5.451,1.389c-4.387,0-7.854-3.143-7.854-7.713
		c0-4.588,3.51-7.729,8.035-7.729c1.779,0,3.238,0.422,4.609,1.08c0.154,0.059,0.264,0.207,0.264,0.385
		c0,0.072-0.018,0.139-0.051,0.199v0.002l-1.068,2.059h-0.002c-0.068,0.129-0.203,0.217-0.359,0.217c-0.053,0-0.1-0.012-0.145-0.027
		c-0.01,0-0.02-0.002-0.029-0.006c-0.957-0.441-1.975-0.668-2.992-0.668c-2.98,0-4.568,1.859-4.568,4.488
		c0,2.857,1.916,4.631,4.365,4.631c1.1,0,1.65-0.121,2.199-0.408v-2.203H88.09l-0.008,0.002c-0.227,0-0.412-0.184-0.412-0.414
		c0-0.002,0.002-0.006,0.002-0.008v-2.113c0-0.004-0.002-0.008-0.002-0.012c0-0.229,0.186-0.412,0.412-0.412h0.01h5.428
		c0.23,0,0.414,0.184,0.414,0.412c0,0.004-0.002,0.008-0.002,0.01L93.934,108.314z"/>
</g>
</svg>
