<?xml version="1.0" encoding="utf-8"?>
<svg version="1.1" id="Layer_1" xmlns="http://www.w3.org/2000/svg" xmlns:xlink="http://www.w3.org/1999/xlink" x="0px" y="0px"
	 viewBox="0 0 200 200" enable-background="new 0 0 200 200" xml:space="preserve">
<path d="M149,15.1H50.7c-0.5,0-0.9,0.3-1.2,0.7L0.3,99.3c-0.2,0.4-0.2,0.9,0,1.4l49.2,83.6c0.2,0.4,0.7,0.7,1.2,0.7
	H149c0.5,0,0.9-0.3,1.2-0.7l49.2-83.6c0.2-0.4,0.2-0.9,0-1.4l-49.2-83.6C149.9,15.3,149.5,15.1,149,15.1z M45.9,151.9l-28.5-48.3
	c-0.4-0.6-0.2-1.5,0.5-1.8L49.5,84c0.9-0.5,2,0.2,2,1.2l-3.1,66C48.3,152.6,46.6,153,45.9,151.9z M64.3,136.6l53.9,32.6
	c1.2,0.7,0.7,2.5-0.7,2.5H62.1c-0.8,0-1.4-0.6-1.3-1.4l1.5-32.6C62.3,136.6,63.4,136,64.3,136.6z M63.1,119.6l2-43.6
	c0-0.5,0.3-0.9,0.7-1.1l32.3-18.1c0.4-0.2,0.9-0.2,1.3,0l36.9,22.1c0.4,0.3,0.7,0.7,0.6,1.2l-1.8,42.9c0,0.5-0.3,0.9-0.7,1.1
	l-33.6,18.5c-0.4,0.2-0.9,0.2-1.3,0l-35.8-21.7C63.3,120.5,63.1,120.1,63.1,119.6z M135.7,63l-58-34.7h60c0.8,0,1.4,0.6,1.3,1.4
	l-1.3,32.2C137.7,62.9,136.6,63.5,135.7,63z M151.7,44.4l30.6,51.9c0.4,0.6,0.2,1.5-0.5,1.8l-30.9,17c-0.9,0.5-2-0.2-2-1.2
	L151.7,44.4z M57.2,31.4l26.5,15.9c0.9,0.5,0.9,1.8,0,2.3L30.1,79.7c-1.2,0.7-2.5-0.7-1.8-1.8l27.1-46
	C55.7,31.3,56.6,31.1,57.2,31.4z M142.5,168.4l-27.2-16.4c-0.9-0.5-0.9-1.8,0-2.3l58.8-32.3l-29.8,50.6
	C144,168.6,143.2,168.8,142.5,168.4z"/>
</svg>
