<?xml version="1.0" encoding="utf-8"?>
<!DOCTYPE svg PUBLIC "-//W3C//DTD SVG 1.1//EN" "http://www.w3.org/Graphics/SVG/1.1/DTD/svg11.dtd">
<svg version="1.1" id="Layer_1" xmlns="http://www.w3.org/2000/svg" xmlns:xlink="http://www.w3.org/1999/xlink" x="0px" y="0px"
	 viewBox="271 0 895 900" enable-background="new 271 0 895 900" xml:space="preserve">
<g>
	<path d="M1161,575.1c0-77.9,0-149,0-151.7c0-23.4-19.3-40.9-42.8-40.9H963V39.6C963,16.2,945,0,921.6,0H321.3
		c-23.8,0-42.8,18-42.8,41.4l-0.4,404.1c-0.5,167-0.5,320.4-0.5,320.9c0,73.8,59,133.6,131.9,133.6h603.9c2.2,0,4.5,0,6.8,0
		c2.2,0.5,5,0.9,7.2,0.9c0.9,0,1.4,0,2.2,0c3.6,0,7.7,0,11.2-0.9c31.1-3.1,59.9-16.6,81.9-39.1c24.3-24.8,37.8-57.6,37.8-91.8
		C1161,767.2,1161,667.4,1161,575.1z M964.4,767.2c0-1.8,0-3.6,0-5.4c-0.5-1.4-0.5-4-1.4-5.4c0-56.7,1.4-247.9,1.8-315.4h131.9
		c0,76.5,0,324,0,326.7c0,31-23,59-53.6,65.7l-8.1,0.9c-1.3,0-2.7,0-4.5,0c-36.5,0-65.7-29.2-65.7-65.7
		C964.4,768.1,964.4,767.7,964.4,767.2z M899.1,767.7c0.5,4,0.5,8.1,1.3,12.2c1.8,20.2,7.7,39.1,17.5,57.1H409.5
		c-37.4,0-68-31.5-68-69.8c0-1.8,0.9-582.8,0.9-704.2H900v702.9L899.1,767.7z"/>
	<g>
		<path d="M688.5,144.9c0-15.3-12.6-27.9-27.9-27.9H428.4c-15.3,0-27.9,12.6-27.9,27.9v241.7
			c0,15.3,12.6,27.9,27.9,27.9H661c15.3,0,27.9-12.6,27.9-27.9V144.9H688.5z M630,171v189H450V171H630z"/>
		<path d="M855,482.4c0-15.3-12.6-27.9-27.9-27.9H428.4c-15.3,0-27.9,12.6-27.9,27.9V589c0,15.3,12.6,27.9,27.9,27.9
			h399.1c15.3,0,27.9-12.6,27.9-27.9V482.4H855z M450,562.5v-54h346.5v54H450z"/>
	</g>
	<g>
		<path d="M725.4,132.3v26.5c0,8.1,6.8,14.9,14.9,14.9h90.9c8.1,0,14.9-6.8,14.9-14.9v-26.5
			c0-8.1-6.8-14.8-14.9-14.8h-90.9C732.1,117.5,725.4,124.2,725.4,132.3z"/>
		<path d="M740.2,419.9h90.9c8.1,0,14.9-6.8,14.9-14.9v-26.6c0-8.1-6.8-14.9-14.9-14.9h-90.9
			c-8.1,0-14.9,6.8-14.9,14.9V405C725.4,413.1,732.1,419.9,740.2,419.9z"/>
		<path d="M740.2,335.2h90.9c8.1,0,14.9-6.8,14.9-14.9v-26.6c0-8.1-6.8-14.9-14.9-14.9h-90.9
			c-8.1,0-14.9,6.8-14.9,14.9v26.6C725.4,328.5,732.1,335.2,740.2,335.2z"/>
		<path d="M740.2,254.2h90.9c8.1,0,14.9-6.8,14.9-14.8v-26.6c0-8.1-6.8-14.8-14.9-14.8h-90.9
			c-8.1,0-14.9,6.8-14.9,14.8v26.6C725.4,247.5,732.1,254.2,740.2,254.2z"/>
	</g>
	<g>
		<path d="M394.6,664.6v26.5c0,8.1,6.8,14.9,14.9,14.9h421.6c8.1,0,14.9-6.8,14.9-14.9v-26.5
			c0-8.1-6.8-14.8-14.9-14.8H410C401.4,649.4,394.6,656.1,394.6,664.6z"/>
		<path d="M410,782.5H634c8.1,0,14.9-6.8,14.9-14.9v-26.5c0-8.1-6.8-14.8-14.9-14.8H410c-8.1,0-14.9,6.8-14.9,14.8
			v26.5C394.6,775.8,401.4,782.5,410,782.5z"/>
	</g>
</g>
</svg>
