<?xml version="1.0" encoding="utf-8"?>
<!DOCTYPE svg PUBLIC "-//W3C//DTD SVG 1.1//EN" "http://www.w3.org/Graphics/SVG/1.1/DTD/svg11.dtd">
<svg version="1.1" id="Layer_1" xmlns="http://www.w3.org/2000/svg" xmlns:xlink="http://www.w3.org/1999/xlink" x="0px" y="0px"
	 viewBox="0 0 50 50" enable-background="new 0 0 50 50" xml:space="preserve">
<path d="M48.6,25c0-0.5-0.2-1.1-0.6-1.4l-20-20C27.7,3.2,27.2,3,26.6,3c-1.1,0-1.9,0.9-1.9,1.9c0,0.5,0.1,0.8,0.4,1.2h0l11,14.6
	c0.4,0.5,0,1.2-0.6,1.3L3.2,23.3l0,0h0H3v0c-0.9,0-1.6,0.8-1.6,1.7c0,1,0.8,1.7,1.8,1.7c0,0,0,0,0,0l32.2,1.4c0.6,0,1,0.8,0.6,1.3
	L25,44l0,0c-0.2,0.3-0.4,0.7-0.4,1.1c0,1.1,0.9,1.9,1.9,1.9c0.6,0,1.1-0.2,1.4-0.6l20-20C48.4,26.1,48.6,25.6,48.6,25z"/>
</svg>
