<?xml version="1.0" encoding="utf-8"?>
<!-- Generator: Adobe Illustrator 18.0.0, SVG Export Plug-In . SVG Version: 6.00 Build 0)  -->
<!DOCTYPE svg PUBLIC "-//W3C//DTD SVG 1.1//EN" "http://www.w3.org/Graphics/SVG/1.1/DTD/svg11.dtd">
<svg version="1.1" xmlns="http://www.w3.org/2000/svg" xmlns:xlink="http://www.w3.org/1999/xlink" x="0px" y="0px"
	 viewBox="0 0 24 24" enable-background="new 0 0 24 24" xml:space="preserve">
<g id="wireframe" display="none">
</g>
<g id="wireframe_menu" display="none">
</g>
<g id="Workspace">
</g>
<g id="Menu_wkspace">
	<g>
		<g>
			<path d="M23.7,6.9c-0.2,0.2-0.3,0.5-0.5,0.7C23,7.8,22.8,8,22.6,8.3c-0.2,0.2-0.4,0.4-0.6,0.6c-0.2,0.2-0.5,0.4-0.7,0.6
				c0,0,0,0.1,0,0.1c0,0.1,0,0.1,0,0.2c0,0,0,0.1,0,0.1c0,0,0,0.1,0,0.2c0,1.6-0.3,3.2-0.9,4.8c-0.6,1.6-1.5,3.1-2.6,4.4
				c-1.2,1.3-2.6,2.4-4.3,3.2c-1.7,0.8-3.7,1.2-5.9,1.2c-0.7,0-1.3,0-2-0.1c-0.7-0.1-1.3-0.2-1.9-0.4C3,23,2.4,22.8,1.8,22.5
				c-0.6-0.3-1.1-0.6-1.7-0.9c0.1,0,0.2,0,0.3,0c0.1,0,0.2,0,0.3,0c0.1,0,0.2,0,0.3,0s0.2,0,0.3,0c0.6,0,1.1,0,1.7-0.1
				c0.5-0.1,1.1-0.2,1.6-0.4c0.5-0.2,1-0.4,1.4-0.6c0.5-0.3,0.9-0.6,1.3-0.9c-0.6,0-1.1-0.1-1.5-0.3c-0.5-0.2-0.9-0.4-1.3-0.7
				c-0.4-0.3-0.7-0.6-1-1.1c-0.3-0.4-0.5-0.9-0.7-1.4c0.1,0,0.2,0.1,0.3,0.1c0.1,0,0.2,0,0.2,0c0.1,0,0.2,0,0.2,0c0.1,0,0.1,0,0.2,0
				c0.1,0,0.2,0,0.3,0c0.1,0,0.2,0,0.3,0c0.1,0,0.2,0,0.3,0c0.1,0,0.2,0,0.3-0.1c-0.6-0.1-1.1-0.3-1.5-0.6c-0.5-0.3-0.9-0.6-1.2-1.1
				c-0.4-0.4-0.6-0.9-0.8-1.4c-0.2-0.5-0.3-1.1-0.3-1.7v0v0c0.2,0.1,0.3,0.2,0.5,0.3c0.2,0.1,0.3,0.1,0.5,0.2c0.2,0,0.4,0.1,0.6,0.1
				c0.2,0,0.4,0,0.6,0c-0.3-0.2-0.6-0.5-0.9-0.7s-0.5-0.6-0.7-0.9C1.5,9.9,1.4,9.5,1.3,9.1C1.2,8.8,1.1,8.4,1.1,7.9
				c0-0.2,0-0.4,0-0.6c0-0.2,0.1-0.4,0.1-0.6c0.1-0.2,0.1-0.4,0.2-0.6c0.1-0.2,0.2-0.4,0.3-0.6c0.6,0.7,1.2,1.4,2,2S5.3,8.6,6.2,9
				c0.8,0.4,1.7,0.8,2.7,1c0.9,0.3,1.9,0.4,2.9,0.5c0-0.1-0.1-0.2-0.1-0.3c0-0.1,0-0.2,0-0.3s0-0.2,0-0.3c0-0.1,0-0.2,0-0.3
				c0-0.7,0.1-1.3,0.4-1.9C12.3,7,12.6,6.5,13,6c0.4-0.4,0.9-0.8,1.5-1c0.6-0.2,1.2-0.4,1.9-0.4c0.4,0,0.7,0,1,0.1
				c0.3,0.1,0.6,0.2,0.9,0.3c0.3,0.1,0.6,0.3,0.8,0.5c0.3,0.2,0.5,0.4,0.7,0.6c0.3-0.1,0.6-0.1,0.8-0.2c0.3-0.1,0.5-0.2,0.8-0.3
				c0.2-0.1,0.5-0.2,0.7-0.3C22.5,5.2,22.8,5.1,23,5c-0.1,0.3-0.2,0.5-0.3,0.8c-0.1,0.3-0.3,0.5-0.5,0.7c-0.2,0.2-0.4,0.4-0.6,0.6
				c-0.2,0.2-0.4,0.4-0.7,0.5c0.2,0,0.5-0.1,0.7-0.1c0.2,0,0.5-0.1,0.7-0.2c0.2-0.1,0.5-0.1,0.7-0.2C23.2,7.1,23.5,7,23.7,6.9z"/>
		</g>
	</g>
</g>
<g id="menu_hover" display="none">
</g>
<g id="MODULAR_SCALE">
</g>
<g id="notes">
</g>
<g id="GRID">
</g>
<g id="V_guides" display="none">
</g>
<g id="H_guides" display="none">
</g>
</svg>
