<?xml version="1.0" encoding="utf-8"?>
<!-- Generator: Adobe Illustrator 18.0.0, SVG Export Plug-In . SVG Version: 6.00 Build 0)  -->
<!DOCTYPE svg PUBLIC "-//W3C//DTD SVG 1.1//EN" "http://www.w3.org/Graphics/SVG/1.1/DTD/svg11.dtd">
<svg version="1.1" xmlns="http://www.w3.org/2000/svg" xmlns:xlink="http://www.w3.org/1999/xlink" x="0px" y="0px"
	 viewBox="0 0 24 24" enable-background="new 0 0 24 24" xml:space="preserve">
<g id="wireframe" display="none">
</g>
<g id="wireframe_menu" display="none">
</g>
<g id="Workspace">
</g>
<g id="Menu_wkspace">
	<g>
		<g>
			<path d="M12,0.3c1.6,0,3.1,0.3,4.6,0.9c1.4,0.6,2.7,1.5,3.7,2.5c1.1,1.1,1.9,2.3,2.5,3.7c0.6,1.4,0.9,2.9,0.9,4.6
				c0,1.6-0.3,3.1-0.9,4.6c-0.6,1.4-1.5,2.7-2.5,3.7c-1.1,1.1-2.3,1.9-3.7,2.5s-2.9,0.9-4.6,0.9c-1.6,0-3.1-0.3-4.6-0.9
				s-2.7-1.5-3.7-2.5c-1.1-1.1-1.9-2.3-2.5-3.7c-0.6-1.4-0.9-2.9-0.9-4.6c0-1.6,0.3-3.1,0.9-4.6C1.8,6,2.6,4.8,3.7,3.7
				C4.8,2.6,6,1.8,7.4,1.2C8.9,0.6,10.4,0.3,12,0.3z M18.7,8.6c0.2-0.1,0.4-0.3,0.5-0.4c0.2-0.1,0.3-0.3,0.5-0.4
				c0.2-0.2,0.3-0.3,0.4-0.5c0.1-0.2,0.2-0.3,0.4-0.5c-0.2,0.1-0.3,0.2-0.5,0.2c-0.2,0-0.3,0.1-0.5,0.1c-0.2,0-0.3,0.1-0.5,0.1
				c-0.2,0-0.3,0.1-0.5,0.1c0.2-0.1,0.4-0.2,0.5-0.3c0.2-0.1,0.3-0.3,0.4-0.5c0.1-0.2,0.2-0.3,0.3-0.5C19.9,5.8,20,5.6,20,5.4
				c-0.2,0.1-0.4,0.2-0.5,0.3c-0.2,0.1-0.3,0.2-0.5,0.3C18.8,6,18.6,6,18.4,6.1c-0.2,0-0.4,0.1-0.6,0.2c-0.2-0.2-0.4-0.3-0.6-0.5
				s-0.4-0.3-0.6-0.3c-0.2-0.1-0.4-0.2-0.7-0.2c-0.2,0-0.5-0.1-0.7-0.1c-0.5,0-0.9,0.1-1.4,0.3c-0.4,0.2-0.8,0.4-1.1,0.7
				c-0.3,0.3-0.6,0.7-0.8,1.1c-0.2,0.4-0.3,0.9-0.3,1.4c0,0.1,0,0.1,0,0.2c0,0.1,0,0.1,0,0.2c0,0.1,0,0.1,0,0.2c0,0.1,0,0.1,0,0.2
				c-0.7,0-1.4-0.1-2.1-0.3S8.4,8.6,7.8,8.3C7.2,8,6.7,7.6,6.1,7.2c-0.5-0.4-1-0.9-1.4-1.4C4.6,5.9,4.5,6,4.5,6.2
				C4.4,6.3,4.4,6.4,4.3,6.6c0,0.1-0.1,0.3-0.1,0.4c0,0.2,0,0.3,0,0.5c0,0.3,0,0.6,0.1,0.9c0.1,0.3,0.2,0.5,0.3,0.8
				c0.1,0.2,0.3,0.5,0.5,0.7c0.2,0.2,0.4,0.4,0.6,0.6c-0.1,0-0.3,0-0.4,0c-0.1,0-0.3-0.1-0.4-0.1c-0.1,0-0.3-0.1-0.4-0.1
				c-0.1,0-0.2-0.1-0.4-0.2v0c0,0.4,0.1,0.8,0.2,1.2c0.1,0.4,0.3,0.7,0.6,1c0.2,0.3,0.5,0.6,0.9,0.8c0.4,0.2,0.7,0.3,1.1,0.4
				c-0.1,0-0.2,0-0.3,0c-0.1,0-0.2,0-0.2,0c-0.1,0-0.2,0-0.2,0c-0.1,0-0.1,0-0.2,0c-0.1,0-0.1,0-0.2,0c-0.1,0-0.1,0-0.2,0
				s-0.1,0-0.2,0c-0.1,0-0.1,0-0.2,0c0.1,0.3,0.3,0.7,0.5,1c0.2,0.3,0.5,0.6,0.7,0.8c0.3,0.2,0.6,0.4,0.9,0.5
				c0.4,0.1,0.7,0.2,1.1,0.2c-0.3,0.2-0.6,0.4-0.9,0.6C7.4,16.7,7,16.9,6.7,17c-0.4,0.1-0.7,0.2-1.1,0.3c-0.4,0.1-0.8,0.1-1.2,0.1
				c-0.1,0-0.1,0-0.2,0c-0.1,0-0.1,0-0.2,0c-0.1,0-0.1,0-0.2,0c-0.1,0-0.1,0-0.2,0c0.4,0.2,0.8,0.5,1.2,0.7c0.4,0.2,0.8,0.4,1.3,0.5
				c0.4,0.1,0.9,0.2,1.4,0.3c0.5,0.1,1,0.1,1.4,0.1c1.6,0,3-0.3,4.3-0.9c1.2-0.6,2.3-1.4,3.1-2.3c0.8-0.9,1.5-2,1.9-3.2
				c0.4-1.2,0.6-2.3,0.6-3.5c0,0,0-0.1,0-0.1c0,0,0-0.1,0-0.1C18.7,8.7,18.7,8.7,18.7,8.6C18.7,8.6,18.7,8.6,18.7,8.6z"/>
		</g>
	</g>
</g>
<g id="menu_hover" display="none">
</g>
<g id="MODULAR_SCALE">
</g>
<g id="notes">
</g>
<g id="GRID">
</g>
<g id="V_guides" display="none">
</g>
<g id="H_guides" display="none">
</g>
</svg>
