<?xml version="1.0" encoding="utf-8"?>
<svg version="1.1" id="Layer_1" xmlns="http://www.w3.org/2000/svg" xmlns:xlink="http://www.w3.org/1999/xlink" x="0px" y="0px"
	 viewBox="0 0 200 200" enable-background="new 0 0 200 200" xml:space="preserve">
<path d="M197.5,110.7L162.8,83l13.5-10.7c2.6-2.1,2.6-6,0-8L103,5.7c-1.9-1.5-4.5-1.5-6.4,0L23.2,64.2
	c-2.6,2.1-2.6,6,0,8l13.5,10.7L1.9,110.6c-2.6,2.1-2.6,6,0,8l94.5,75.5c1.9,1.5,4.5,1.5,6.4,0l94.6-75.4
	C200,116.7,200,112.8,197.5,110.7z M46,64.2l50.6-40.3c1.9-1.5,4.5-1.5,6.4,0l50.5,40.4c2.6,2.1,2.6,6,0,8l-50.6,40.3
	c-1.9,1.5-4.5,1.5-6.4,0L46,72.2C43.4,70.1,43.4,66.2,46,64.2z M174.7,118.8L102.9,176c-1.9,1.5-4.5,1.5-6.4,0l-71.8-57.4
	c-2.6-2.1-2.6-6,0-8L48,92l48.4,38.7c1.9,1.5,4.5,1.5,6.4,0l48.5-38.7c0.1,0.1,0.2,0.2,0.2,0.2l23.1,18.4
	C177.3,112.8,177.3,116.7,174.7,118.8z"/>
</svg>
