<?xml version="1.0" encoding="utf-8"?>
<svg version="1.1" id="Layer_1" xmlns="http://www.w3.org/2000/svg" xmlns:xlink="http://www.w3.org/1999/xlink" x="0px" y="0px"
	 viewBox="0 0 200 200" enable-background="new 0 0 200 200" xml:space="preserve">
<path d="M168.4,15.2H32.6H5.3c-2.4,0-4.4,2-4.4,4.4v72.2v15.6v72.9c0,2.4,2,4.4,4.4,4.4h27.3h135.8h26.3
	c2.4,0,4.4-2,4.4-4.4v-72.9V91.7V19.5c0-2.4-2-4.4-4.4-4.4H168.4z M183.4,35.2v14.7c0,2.4-2,4.4-4.4,4.4h-6.9c-2.4,0-4.4-2-4.4-4.4
	V35.2c0-2.4,2-4.4,4.4-4.4h6.9C181.4,30.8,183.4,32.8,183.4,35.2z M152.1,35.2v51.2c0,2.4-2,4.4-4.4,4.4H52.2c-2.4,0-4.4-2-4.4-4.4
	V35.2c0-2.4,2-4.4,4.4-4.4h95.5C150.2,30.8,152.1,32.8,152.1,35.2z M32.2,35.2v14.7c0,2.4-2,4.4-4.4,4.4h-6.9c-2.4,0-4.4-2-4.4-4.4
	V35.2c0-2.4,2-4.4,4.4-4.4h6.9C30.3,30.8,32.2,32.8,32.2,35.2z M20.9,69.9h6.9c2.4,0,4.4,2,4.4,4.4v12.1c0,2.4-2,4.4-4.4,4.4h-6.9
	c-2.4,0-4.4-2-4.4-4.4V74.3C16.6,71.9,18.5,69.9,20.9,69.9z M32.2,110.8v14.7c0,2.4-2,4.4-4.4,4.4h-6.9c-2.4,0-4.4-2-4.4-4.4v-14.7
	c0-2.4,2-4.4,4.4-4.4h6.9C30.3,106.4,32.2,108.3,32.2,110.8z M16.6,164.6v-14.7c0-2.4,2-4.4,4.4-4.4h6.9c2.4,0,4.4,2,4.4,4.4v14.7
	c0,2.4-2,4.4-4.4,4.4h-6.9C18.5,169,16.6,167,16.6,164.6z M47.8,164.6v-53.8c0-2.4,2-4.4,4.4-4.4h95.5c2.4,0,4.4,2,4.4,4.4v53.8
	c0,2.4-2,4.4-4.4,4.4H52.2C49.8,169,47.8,167,47.8,164.6z M167.7,164.6v-14.7c0-2.4,2-4.4,4.4-4.4h6.9c2.4,0,4.4,2,4.4,4.4v14.7
	c0,2.4-2,4.4-4.4,4.4h-6.9C169.7,169,167.7,167,167.7,164.6z M179,129.9h-6.9c-2.4,0-4.4-2-4.4-4.4v-14.7c0-2.4,2-4.4,4.4-4.4h6.9
	c2.4,0,4.4,2,4.4,4.4v14.7C183.4,127.9,181.4,129.9,179,129.9z M167.7,86.4V74.3c0-2.4,2-4.4,4.4-4.4h6.9c2.4,0,4.4,2,4.4,4.4v12.1
	c0,2.4-2,4.4-4.4,4.4h-6.9C169.7,90.8,167.7,88.8,167.7,86.4z"/>
</svg>
