<?xml version="1.0" encoding="utf-8"?>
<!-- Generator: Adobe Illustrator 18.0.0, SVG Export Plug-In . SVG Version: 6.00 Build 0)  -->
<!DOCTYPE svg PUBLIC "-//W3C//DTD SVG 1.1//EN" "http://www.w3.org/Graphics/SVG/1.1/DTD/svg11.dtd">
<svg version="1.1" xmlns="http://www.w3.org/2000/svg" xmlns:xlink="http://www.w3.org/1999/xlink" x="0px" y="0px"
	 viewBox="0 0 24 24" enable-background="new 0 0 24 24" xml:space="preserve">
<g id="wireframe" display="none">
</g>
<g id="wireframe_menu" display="none">
</g>
<g id="Workspace">
</g>
<g id="Menu_wkspace">
	<g>
		<g>
			<path d="M12,0.3c1.6,0,3.1,0.3,4.6,0.9c1.4,0.6,2.7,1.5,3.7,2.5c1.1,1.1,1.9,2.3,2.5,3.7c0.6,1.4,0.9,2.9,0.9,4.6
				c0,1.6-0.3,3.1-0.9,4.6c-0.6,1.4-1.5,2.7-2.5,3.7c-1.1,1.1-2.3,1.9-3.7,2.5s-2.9,0.9-4.6,0.9c-1.6,0-3.1-0.3-4.6-0.9
				s-2.7-1.5-3.7-2.5c-1.1-1.1-1.9-2.3-2.5-3.7c-0.6-1.4-0.9-2.9-0.9-4.6c0-1.6,0.3-3.1,0.9-4.6C1.8,6,2.6,4.8,3.7,3.7
				C4.8,2.6,6,1.8,7.4,1.2C8.9,0.6,10.4,0.3,12,0.3z M18.9,10.3c0.2-1.1,0.1-1.9-0.5-2.3c-0.5-0.5-1.2-0.6-1.9-0.6
				c-0.7,0.1-1.5,0.4-2.2,1C13.6,9,13.2,9.7,13,10.7c0.4-0.2,0.7-0.4,1.1-0.3c0.3,0,0.5,0.1,0.7,0.3c0.2,0.2,0.2,0.5,0.2,0.8
				c0,0.3-0.1,0.7-0.3,1.1c-0.2,0.4-0.4,0.7-0.6,1.1c-0.2,0.3-0.4,0.6-0.5,0.8c-0.2,0.2-0.3,0.4-0.5,0.5c-0.1,0.1-0.3,0.2-0.4,0.2
				c-0.1,0-0.2-0.1-0.3-0.2c-0.1-0.1-0.2-0.3-0.3-0.6c-0.1-0.2-0.2-0.5-0.3-0.9c-0.1-0.3-0.2-0.7-0.3-1.2c-0.1-0.5-0.2-1-0.3-1.6
				c-0.1-0.6-0.2-1.1-0.3-1.6c-0.2-0.5-0.4-0.9-0.6-1.2c-0.3-0.3-0.6-0.4-1.1-0.3C8.7,7.6,8.3,7.8,7.8,8.1C7.3,8.5,6.8,8.8,6.4,9.2
				C6,9.6,5.6,10.1,5,10.7l0.6,0.7c0.3-0.2,0.5-0.3,0.7-0.4c0.2-0.1,0.3-0.2,0.5-0.2c0.2,0,0.3,0,0.4,0.1c0.1,0.1,0.3,0.5,0.5,1.1
				c0.2,0.7,0.4,1.4,0.7,2.2c0.2,0.8,0.5,1.6,0.7,2.3c0.2,0.7,0.4,1.2,0.5,1.4c0.1,0.2,0.3,0.5,0.5,0.7c0.2,0.2,0.4,0.4,0.7,0.6
				c0.3,0.2,0.5,0.2,0.8,0.3c0.3,0,0.6-0.1,1-0.3c0.3-0.2,0.8-0.6,1.5-1.1c0.6-0.6,1.3-1.2,2-2c0.7-0.8,1.3-1.7,1.9-2.7
				C18.3,12.5,18.7,11.4,18.9,10.3z"/>
		</g>
	</g>
</g>
<g id="menu_hover" display="none">
</g>
<g id="MODULAR_SCALE">
</g>
<g id="notes">
</g>
<g id="GRID">
</g>
<g id="V_guides" display="none">
</g>
<g id="H_guides" display="none">
</g>
</svg>
