<?xml version="1.0" encoding="utf-8"?>
<svg version="1.1" id="Layer_1" xmlns="http://www.w3.org/2000/svg" xmlns:xlink="http://www.w3.org/1999/xlink" x="0px" y="0px"
	 viewBox="0 0 200 200" enable-background="new 0 0 200 200" xml:space="preserve">
<g>
	<g>
		<g>
			<path d="M99.9,171.9c-44.2,0-84.1-27.9-99.1-69.5l0,0c-0.6-1.8-0.6-3.7,0-5.4h0c15.1-41.6,54.9-69.5,99.1-69.5
				c44.2,0,84.1,27.9,99.1,69.5l0,0c0.6,1.8,0.6,3.7,0,5.4l0,0C183.9,144,144.1,171.9,99.9,171.9z M18.1,96.6c-0.9,2-0.9,4.3,0,6.2
				c14.3,32,46.4,53.2,81.8,53.2c35.4,0,67.6-21.1,81.8-53.2c0.9-2,0.9-4.3,0-6.2c-14.3-32-46.4-53.2-81.8-53.2
				C64.4,43.4,32.3,64.5,18.1,96.6z"/>
		</g>
		<g>
			<path d="M100.2,138.2c-20.9,0-37.9-17-37.9-37.9s17-37.9,37.9-37.9s37.9,17,37.9,37.9S121.1,138.2,100.2,138.2z
				 M100.2,78.3c-12.1,0-21.9,9.8-21.9,22s9.8,22,21.9,22c12.1,0,22-9.8,22-22S112.3,78.3,100.2,78.3z"/>
		</g>
	</g>
	<path d="M120,90.8l-15.9,9.5c-1.5,0.9-3.1-0.8-2.3-2.3l9.5-15.9c0.6-0.9,1.8-1.1,2.6-0.3l6.4,6.4
		C121.1,88.9,120.9,90.2,120,90.8z"/>
</g>
</svg>
