<?xml version="1.0" encoding="utf-8"?>
<!DOCTYPE svg PUBLIC "-//W3C//DTD SVG 1.1//EN" "http://www.w3.org/Graphics/SVG/1.1/DTD/svg11.dtd">
<svg version="1.1" id="Layer_1" xmlns="http://www.w3.org/2000/svg" xmlns:xlink="http://www.w3.org/1999/xlink" x="0px" y="0px"
	 viewBox="273 148 895 578" enable-background="new 273 148 895 578" xml:space="preserve">
<path d="M1066.5,317.7v-68.4c0-8.6-6.8-15.3-15.3-15.3H730.4c-8.6,0-15.3-6.8-15.3-15.3v-50.4
	c0-8.6-6.8-15.3-15.3-15.3H294.3c-8.5,0-15.3,6.8-15.3,15.3v536.9c0,8.5,6.8,15.3,15.3,15.3h406.4c8.5,0,15.3-6.8,15.3-15.3v-50.8
	c0-8.5,6.8-15.3,15.3-15.3h176.8c8.5,0,15.3,6.8,15.3,15.3v50.8c0,8.5,6.8,15.3,15.3,15.3H1147c8.6,0,15.3-6.8,15.3-15.3V348.3
	c0-8.6-6.8-15.3-15.3-15.3h-64.3C1073.2,333,1066.5,326.2,1066.5,317.7z M655.2,675H339.3c-8.5,0-15.3-6.8-15.3-15.3V213.3
	c0-8.6,6.8-15.3,15.3-15.3h316.4c8.5,0,15.3,6.8,15.3,15.3v5.9c0,8.6-6.8,15.3-15.3,15.3H384.3c-8.5,0-15.3,6.8-15.3,15.3v374.9
	c0,8.5,6.8,15.3,15.3,15.3h271.3c8.6,0,15.3,6.8,15.3,15.3v5.9C670.5,668.2,663.8,675,655.2,675z M670.5,294.3v284.8
	c0,8.5-6.8,15.3-15.3,15.3H429.3c-8.6,0-15.3-6.8-15.3-15.3V294.3c0-8.6,6.8-15.3,15.3-15.3h226.3
	C663.8,279,670.5,285.8,670.5,294.3z M715.5,578.7V294.3c0-8.6,6.8-15.3,15.3-15.3h275.8c8.5,0,15.3,6.8,15.3,15.3v23.9
	c0,8.5-6.8,15.3-15.3,15.3h-68.8c-8.5,0-15.3,6.8-15.3,15.3v230.9c0,8.5-6.8,15.3-15.3,15.3H730.4
	C722.2,594,715.5,587.2,715.5,578.7z M1021.5,393.3v185.8c0,8.5-6.8,15.3-15.3,15.3h-23.8c-8.5,0-15.3-6.8-15.3-15.3V393.3
	c0-8.6,6.8-15.3,15.3-15.3h23.8C1014.8,378,1021.5,384.8,1021.5,393.3z M1100.7,675H982.4c-8.5,0-15.3-6.8-15.3-15.3v-5.8
	c0-8.5,6.8-15.3,15.3-15.3h68.9c8.5,0,15.3-6.8,15.3-15.3v-230c0-8.6,6.8-15.3,15.3-15.3h19.4c8.5,0,15.3,6.8,15.3,15.3v266.8
	C1116,668.2,1109.2,675,1100.7,675z"/>
</svg>
