<?xml version="1.0" encoding="utf-8"?>
<svg version="1.1" id="Layer_1" xmlns="http://www.w3.org/2000/svg" xmlns:xlink="http://www.w3.org/1999/xlink" x="0px" y="0px"
	 viewBox="0 0 200 200" enable-background="new 0 0 200 200" xml:space="preserve">
<g>
	<path d="M198.7,95.1L182.4,95c-0.4,0-0.7-0.2-0.9-0.5l-18.9-26.4c-1.5-2.2-2.9-4.5-4-6.9l-12.8-27.8
		c-0.2-0.3-0.1-0.7,0-1l8.8-15.2c0.3-0.5,0.1-1.2-0.4-1.5l-7.6-4.4c-0.5-0.3-1.2-0.1-1.5,0.4l-8.7,15.2c-0.2,0.3-0.5,0.5-0.9,0.6
		l-30.2,2.9c-2.9,0.3-5.8,0.3-8.7,0l-31.1-2.9c-0.4,0-0.7-0.2-0.9-0.6l-9-15.3c-0.3-0.5-1-0.7-1.6-0.4l-7.6,4.4
		c-0.5,0.3-0.7,1-0.4,1.6l9.4,16c0.2,0.3,0.2,0.6,0.1,0.9l-9.3,26.8c-1.4,4-3.5,7.7-6.3,10.9L23.3,91.1c-0.2,0.3-0.5,0.4-0.9,0.4
		L1.8,91c-0.6,0-1.1,0.5-1.2,1.1l-0.2,8.8c0,0.6,0.5,1.1,1.1,1.2l16.6,0.4c0.4,0,0.7,0.2,0.9,0.5l20.1,28c1.5,2.2,2.9,4.4,4,6.8
		l11.4,24.8c0.2,0.3,0.1,0.7-0.1,1.1l-10.3,17.2c-0.3,0.5-0.1,1.2,0.4,1.6l7.5,4.5c0.5,0.3,1.2,0.1,1.6-0.4l8.4-14
		c0.2-0.3,0.5-0.5,0.9-0.5l33.6-3.2c2.9-0.3,5.8-0.3,8.7,0l27.8,2.6c0.4,0,0.7,0.2,0.9,0.6l9.3,16.5c0.3,0.5,1,0.7,1.5,0.4l7.7-4.3
		c0.5-0.3,0.7-1,0.4-1.5l-7.6-13.6c-0.2-0.3-0.2-0.6-0.1-0.9l10.5-30.2c1.4-4,3.5-7.7,6.3-11l17.9-20.8c0.2-0.3,0.5-0.4,0.9-0.4
		l18.1,0.1c0.6,0,1.1-0.5,1.1-1.1l0-8.8C199.8,95.6,199.3,95.1,198.7,95.1z M148.6,65.9c1.4,3,3.1,5.9,5,8.7l13.3,18.6
		c0.5,0.8,0,1.8-0.9,1.8l-21.9-0.1c-0.4,0-0.7-0.2-0.9-0.5l-8.8-12.3c-0.7-1-1.3-2-1.8-3.1l-5.8-12.5c-0.2-0.3-0.1-0.7,0-1
		l10.8-18.8c0.5-0.8,1.6-0.7,2,0.1L148.6,65.9z M79.1,115.5c-0.8-1.7-1.8-3.4-2.9-4.9l-3.5-4.9c-0.5-0.8,0-1.8,0.9-1.8l14.6,0.4
		c0.9,0,1.4,1,0.9,1.7l-7.1,11.8c-0.5,0.8-1.6,0.7-2-0.1L79.1,115.5z M81,82.5l0.5-1.3c0.3-0.9,1.6-1,2-0.2l6.1,10.4
		c0.5,0.8-0.1,1.7-1,1.7L77,92.8c-1,0-1.5-1.1-0.8-1.9l0,0C78.3,88.5,80,85.6,81,82.5z M93.3,72.3l4.5,0.4c2,0.2,4.1,0.2,6.1,0
		l4.2-0.4c0.9-0.1,1.5,0.9,1.1,1.7l-7.4,12.8c-0.4,0.8-1.5,0.8-2,0L92.2,74C91.8,73.2,92.4,72.2,93.3,72.3z M100.3,112.2l7.1,12.7
		c0.4,0.8-0.2,1.8-1.1,1.7l-2.4-0.2c-2-0.2-4.1-0.2-6.1,0l-6.3,0.6c-0.9,0.1-1.6-0.9-1.1-1.7l7.8-13
		C98.7,111.4,99.8,111.4,100.3,112.2z M120.6,116.5l-1.2,3.4c-0.3,0.9-1.6,1-2.1,0.2l-7.2-12.7c-0.4-0.8,0.1-1.7,1-1.7l13.8,0.1
		c1,0,1.5,1.1,0.9,1.9l-0.4,0.4C123.3,110.5,121.7,113.4,120.6,116.5z M111,92.9l7.7-13.4c0.5-0.8,1.6-0.7,2,0.1l1.8,3.9
		c0.8,1.7,1.8,3.4,2.9,4.9l3.2,4.4c0.5,0.8,0,1.8-0.9,1.8l-15.7-0.1C111.1,94.6,110.5,93.7,111,92.9z M95.4,41.3
		c3.6,0.3,7.2,0.3,10.8,0l20.8-2c0.9-0.1,1.5,0.9,1.1,1.7l-10.8,18.9c-0.2,0.3-0.5,0.5-0.9,0.6l-13.6,1.3c-1.3,0.1-2.7,0.1-4,0
		l-14.1-1.3c-0.4,0-0.7-0.2-0.9-0.6L72.8,41c-0.5-0.8,0.2-1.8,1.1-1.7L95.4,41.3z M48.3,79c3.7-4.3,6.5-9.2,8.4-14.5l5.6-16
		c0.3-0.9,1.6-1,2-0.2l10.4,17.7c0.2,0.3,0.2,0.6,0.1,0.9l-4.2,12c-0.6,1.8-1.6,3.4-2.8,4.8L60.7,92c-0.2,0.3-0.5,0.4-0.9,0.4
		l-20.2-0.5c-1,0-1.5-1.1-0.8-1.9L48.3,79z M53.1,133.1c-1.4-3-3.1-5.9-5-8.7l-14.2-19.8c-0.5-0.8,0-1.8,0.9-1.8l22.2,0.5
		c0.4,0,0.7,0.2,0.9,0.5l9.4,13.1c0.7,1,1.3,2,1.8,3.1l4.8,10.3c0.2,0.3,0.1,0.7-0.1,1.1l-11.1,18.4c-0.5,0.8-1.6,0.7-2-0.1
		L53.1,133.1z M106.2,157.7c-3.6-0.3-7.2-0.3-10.8,0L71.6,160c-0.9,0.1-1.6-0.9-1.1-1.7l11.4-18.9c0.2-0.3,0.5-0.5,0.9-0.5l16.1-1.5
		c1.3-0.1,2.7-0.1,4,0l11.6,1.1c0.4,0,0.7,0.2,0.9,0.6l10.6,18.8c0.4,0.8-0.2,1.8-1.1,1.7L106.2,157.7z M153.4,120
		c-3.7,4.3-6.5,9.2-8.4,14.5l-6.6,19.1c-0.3,0.9-1.6,1-2.1,0.2l-10.3-18.3c-0.2-0.3-0.2-0.6-0.1-0.9l5-14.6c0.6-1.8,1.6-3.4,2.8-4.8
		l7.8-9c0.2-0.3,0.5-0.4,0.9-0.4l20.6,0.1c1,0,1.5,1.1,0.9,1.9L153.4,120z"/>
</g>
</svg>
