<?xml version="1.0" encoding="utf-8"?>
<!-- Generator: Adobe Illustrator 19.2.0, SVG Export Plug-In . SVG Version: 6.00 Build 0)  -->
<svg version="1.1" id="XMLID_1_" xmlns="http://www.w3.org/2000/svg" xmlns:xlink="http://www.w3.org/1999/xlink" x="0px" y="0px"
	 viewBox="0 0 71.6787 71.6787" enable-background="new 0 0 71.6787 71.6787" xml:space="preserve">
<path id="xmark" d="M44.3237,35.8394l25.5972-25.5972c2.3438-2.3428,2.3438-6.1416,0-8.4844c-2.3418-2.3438-6.1426-2.3438-8.4844,0
	L35.8394,27.355L10.2422,1.7578c-2.3418-2.3438-6.1426-2.3438-8.4844,0c-2.3438,2.3428-2.3438,6.1416,0,8.4844L27.355,35.8394
	L1.7578,61.4365c-2.3438,2.3428-2.3438,6.1416,0,8.4844C2.9287,71.0928,4.4648,71.6787,6,71.6787s3.0713-0.5859,4.2422-1.7578
	l25.5972-25.5972l25.5972,25.5972c1.1709,1.1719,2.707,1.7578,4.2422,1.7578s3.0713-0.5859,4.2422-1.7578
	c2.3438-2.3428,2.3438-6.1416,0-8.4844L44.3237,35.8394z"/>
</svg>
